<svg width="875" height="256" viewBox="0 0 875 256" fill="none" xmlns="http://www.w3.org/2000/svg">
<g clip-path="url(#clip0_7739_29)">
<path d="M54.3996 44.1001C54.3996 44.1001 91.9996 157.7 161 178.5C161 178.5 230.9 154.8 266.9 44.1001C266.9 44.1001 285.7 150.2 169.2 236.4C169.2 236.4 161.2 250.1 161 255.1C160.8 260.1 159.5 245.5 152.3 237.6C145.1 229.7 45.7996 158.5 54.3996 44.1001Z" fill="white"/>
<path d="M160.9 158.7C179.346 158.7 194.3 144.104 194.3 126.1C194.3 108.096 179.346 93.5 160.9 93.5C142.454 93.5 127.5 108.096 127.5 126.1C127.5 144.104 142.454 158.7 160.9 158.7Z" fill="white"/>
<path d="M90.2998 93.5999L118.9 115.9C118.9 115.9 128.2 82 161 83.7C161 83.7 190.8 81.1999 202.3 115.9L230.1 93.5999C230.1 93.5999 178.5 71.2 160.9 36.2C160.9 36.2 110.8 92.2999 90.2998 93.5999Z" fill="white"/>
<path d="M207 110.4V128.2H211.7L209.4 108.6L207 110.4Z" fill="url(#paint0_linear_7739_29)"/>
<path d="M129.6 20.8L128.3 26.4001H122.8L127.5 29.9001L124.9 35.1001L129.6 31.2001L134.1 33.9001L132.4 29.7001L136.7 26.6001H131.5L129.6 20.8Z" fill="white"/>
<path d="M160.8 0.300049L158.6 10.2001H149.1L157.1 16.4001L152.8 25.5001L160.8 18.6001L168.5 23.3L165.6 16.0001L172.9 10.6001H164.1L160.8 0.300049Z" fill="white"/>
<path d="M193.2 20.8L191.9 26.4001H186.4L191.1 29.9001L188.5 35.1001L193.2 31.2001L197.7 33.9001L196 29.7001L200.3 26.6001H195.1L193.2 20.8Z" fill="white"/>
<path d="M338.005 141.8L346.005 61.2001C346.205 59.7001 347.505 58.5001 349.105 58.5001H373.705C375.305 58.5001 376.605 59.7001 376.805 61.2001L384.705 141.8C384.905 143.6 383.405 145.1 381.605 145.1H371.005C369.405 145.1 368.105 143.9 367.905 142.4L367.105 133.9C367.005 132.4 365.605 131.2 364.005 131.2H359.005C357.405 131.2 356.005 132.4 355.905 134L355.205 142.4C355.105 144 353.705 145.2 352.105 145.2H341.105C339.305 145.1 337.905 143.5 338.005 141.8ZM360.705 117.3H362.105C363.905 117.3 365.305 115.8 365.205 114L361.605 73.2001H360.805L357.705 114C357.505 115.8 358.905 117.3 360.705 117.3Z" fill="white"/>
<path d="M390.405 142.1V61.5C390.405 59.8 391.805 58.5 393.505 58.5H414.505C421.005 58.5 425.705 60 428.605 63.1C431.505 66.2 433.005 71.2 433.005 78.3V82.1C433.005 86.2 432.205 89.5 430.705 92C430.105 93 429.405 93.9 428.605 94.6C427.105 95.9 427.105 98 428.705 99.3C430.205 100.5 431.305 102 432.005 104C433.405 107.6 434.005 112 434.005 117.3C434.005 122.9 433.505 127.8 432.405 132C431.305 136.2 429.405 139.5 426.505 141.8C423.705 144.1 419.605 145.3 414.405 145.3H393.405C391.805 145.1 390.405 143.7 390.405 142.1ZM407.805 88.1C407.805 89.8 409.205 91.1 410.905 91.1H411.505C413.205 91.1 414.205 90.5 414.705 89.2C415.205 88 415.405 86.5 415.405 84.7V76C415.405 73.2 414.105 71.8 411.605 71.8H410.905C409.205 71.8 407.805 73.1 407.805 74.8V88.1ZM409.605 129.8C414.205 129.8 416.505 127.7 416.505 123.4V112.6C416.505 110.1 416.105 108.2 415.405 106.8C414.605 105.4 413.205 104.7 411.105 104.7H410.905C409.205 104.7 407.805 106 407.805 107.7V129.8C408.605 129.8 409.205 129.8 409.605 129.8Z" fill="white"/>
<path d="M440.005 142.1V61.5001C440.005 59.8001 441.405 58.5001 443.105 58.5001H467.305C471.905 58.5001 475.305 59.5001 477.605 61.5001C479.905 63.5001 481.505 66.3001 482.305 70.0001C483.105 73.6001 483.505 77.9001 483.505 82.8001C483.505 87.5001 482.905 91.3001 481.705 94.1001C481.105 95.5001 480.205 96.7001 479.105 97.6001C477.805 98.7001 477.805 100.8 479.005 101.9C479.705 102.5 480.205 103.2 480.605 104C481.705 106.2 482.305 108.9 482.305 112.3V142.1C482.305 143.8 480.905 145.1 479.205 145.1H467.805C466.105 145.1 464.705 143.8 464.705 142.1V111.2C464.705 108.7 464.205 107.1 463.105 106.5C462.705 106.3 462.305 106.1 461.705 106C459.805 105.5 457.905 107 457.905 108.9V142.1C457.905 143.8 456.505 145.1 454.805 145.1H443.005C441.405 145.1 440.005 143.7 440.005 142.1ZM458.105 87.5001C458.105 89.2001 459.505 90.5001 461.205 90.5001H462.405C464.905 90.5001 466.105 87.9001 466.105 82.7001C466.105 79.3001 465.805 77.1001 465.305 76.1001C464.805 75.1001 463.705 74.5001 462.305 74.5001H461.205C459.505 74.5001 458.105 75.8001 458.105 77.5001V87.5001Z" fill="white"/>
<path d="M510.605 145.9C503.505 145.9 498.005 143.8 494.305 139.6C490.505 135.4 488.705 129.4 488.705 121.5V80.3001C488.705 72.9001 490.605 67.3001 494.305 63.4001C498.005 59.6001 503.505 57.6001 510.705 57.6001C517.905 57.6001 523.305 59.5001 527.105 63.4001C530.905 67.3001 532.705 72.9001 532.705 80.3001V121.5C532.705 129.4 530.805 135.5 527.105 139.6C523.205 143.8 517.705 145.9 510.605 145.9ZM510.805 129.9C513.505 129.9 514.805 127.4 514.805 122.3V80.0001C514.805 75.7001 513.505 73.6001 510.905 73.6001C507.905 73.6001 506.405 75.8001 506.405 80.1001V122.3C506.405 125 506.705 126.9 507.405 128.1C508.105 129.3 509.205 129.9 510.805 129.9Z" fill="white"/>
<path d="M537.605 141.8L545.605 61.2C545.805 59.7 547.105 58.5 548.705 58.5H573.305C574.905 58.5 576.205 59.7 576.405 61.2L584.305 141.8C584.505 143.6 583.005 145.1 581.205 145.1H570.605C569.005 145.1 567.705 143.9 567.505 142.4L566.705 133.9C566.605 132.4 565.205 131.2 563.605 131.2H558.605C557.005 131.2 555.605 132.4 555.505 134L554.805 142.4C554.705 144 553.305 145.2 551.705 145.2H540.705C538.905 145.1 537.505 143.5 537.605 141.8ZM560.305 117.3H561.705C563.505 117.3 564.905 115.8 564.805 114L561.205 73.2H560.405L557.305 114C557.105 115.8 558.505 117.3 560.305 117.3Z" fill="white"/>
<path d="M590.005 142.1V61.5001C590.005 59.8001 591.405 58.5001 593.105 58.5001H614.505C620.905 58.5001 625.705 60.2001 629.005 63.7001C632.205 67.2001 633.905 72.2001 633.905 78.9001V119.5C633.905 127.7 632.405 134 629.505 138.5C626.505 143 621.405 145.2 614.005 145.2H593.205C591.405 145.1 590.005 143.7 590.005 142.1ZM607.905 126.8C607.905 128.5 609.305 129.8 611.005 129.8C614.305 129.8 615.905 128.3 615.905 125.2V80.5001C615.905 77.6001 615.505 75.7001 614.705 74.9001C613.905 74.1001 612.305 73.6001 609.905 73.6001H607.905V126.8Z" fill="white"/>
<path d="M686.505 145.9C678.405 145.9 672.505 143.9 668.905 140C665.305 136.1 663.505 129.8 663.505 121.2V115.7C663.505 114 664.905 112.7 666.605 112.7H678.005C679.705 112.7 681.105 114 681.105 115.7V123.5C681.105 125.5 681.405 127.1 682.005 128.2C682.605 129.3 683.705 129.9 685.305 129.9C686.905 129.9 688.005 129.4 688.705 128.5C689.305 127.6 689.605 126.1 689.605 124C689.605 121.3 689.305 119.1 688.805 117.3C688.305 115.5 687.305 113.8 686.005 112.2C684.705 110.6 682.805 108.7 680.505 106.5L672.505 99.1001C666.505 93.6001 663.505 87.4001 663.505 80.3001C663.505 72.9001 665.305 67.3001 668.805 63.4001C672.305 59.5001 677.405 57.6001 684.105 57.6001C692.305 57.6001 698.105 59.7001 701.505 64.0001C704.505 67.7001 706.205 73.1001 706.605 80.1001C706.705 81.8001 705.305 83.3001 703.505 83.3001H691.605C689.905 83.3001 688.505 82.0001 688.505 80.3001V77.3001C688.505 76.1001 688.205 75.2001 687.505 74.5001C686.805 73.8001 685.905 73.5001 684.705 73.5001C683.305 73.5001 682.205 73.9001 681.605 74.7001C680.905 75.5001 680.605 76.5001 680.605 77.7001C680.605 78.9001 680.905 80.2001 681.605 81.6001C682.305 83.0001 683.605 84.6001 685.605 86.5001L695.905 96.1001C698.005 98.0001 699.805 100 701.605 102.1C703.305 104.2 704.705 106.7 705.705 109.5C706.705 112.3 707.305 115.7 707.305 119.8C707.305 127.9 705.805 134.3 702.705 138.9C699.505 143.5 694.205 145.9 686.505 145.9Z" fill="white"/>
<path d="M711.105 141.8L719.105 61.2001C719.305 59.7001 720.605 58.5001 722.205 58.5001H746.805C748.405 58.5001 749.705 59.7001 749.905 61.2001L757.805 141.8C758.005 143.6 756.505 145.1 754.705 145.1H744.105C742.505 145.1 741.205 143.9 741.005 142.4L740.205 133.9C740.105 132.4 738.705 131.2 737.105 131.2H732.105C730.505 131.2 729.105 132.4 729.005 134L728.305 142.4C728.205 144 726.805 145.2 725.205 145.2H714.205C712.305 145.1 710.905 143.5 711.105 141.8ZM733.705 117.3H735.105C736.905 117.3 738.305 115.8 738.205 114L734.605 73.2001H733.805L730.705 114C730.505 115.8 731.905 117.3 733.705 117.3Z" fill="white"/>
<path d="M769.805 142.1V78.1001C769.805 76.4001 768.405 75.1001 766.705 75.1001H762.305C760.605 75.1001 759.205 73.8001 759.205 72.1001V61.5001C759.205 59.8001 760.605 58.5001 762.305 58.5001H795.105C796.805 58.5001 798.205 59.8001 798.205 61.5001V72.1001C798.205 73.8001 796.805 75.1001 795.105 75.1001H790.705C789.005 75.1001 787.605 76.4001 787.605 78.1001V142.1C787.605 143.8 786.205 145.1 784.505 145.1H772.905C771.105 145.1 769.805 143.7 769.805 142.1Z" fill="white"/>
<path d="M803.105 142.1V61.5C803.105 59.8 804.506 58.5 806.206 58.5H817.706C819.406 58.5 820.805 59.8 820.805 61.5V86.5C820.805 88.2 822.205 89.5 823.905 89.5H826.105C827.805 89.5 829.206 88.2 829.206 86.5V61.5C829.206 59.8 830.605 58.5 832.305 58.5H843.805C845.505 58.5 846.905 59.8 846.905 61.5V142.1C846.905 143.8 845.505 145.1 843.805 145.1H832.305C830.605 145.1 829.206 143.8 829.206 142.1V108.8C829.206 107.1 827.805 105.8 826.105 105.8H823.905C822.205 105.8 820.805 107.1 820.805 108.8V142.1C820.805 143.8 819.406 145.1 817.706 145.1H806.206C804.506 145.1 803.105 143.7 803.105 142.1Z" fill="white"/>
<path d="M854.005 142.1V61.5001C854.005 59.8001 855.405 58.5001 857.105 58.5001H868.105C869.805 58.5001 871.205 59.8001 871.205 61.5001V142.1C871.205 143.8 869.805 145.1 868.105 145.1H857.105C855.405 145.1 854.005 143.7 854.005 142.1Z" fill="white"/>
<path d="M42.2002 162.3L44.8002 152.2C8.4002 114.3 7.00019 80.2999 45.9002 70.3999C49.0002 69.5999 52.4002 68.9999 56.0002 68.4999C63.1002 67.5999 77.8002 67.6999 88.2002 68.1999C88.6002 68.1999 89.5002 68.2999 90.7002 68.2999C94.9002 68.3999 102.6 68.5999 103.8 68.6999C108.3 66.8999 110.5 65.9999 117.6 64.2999C115 63.7999 105.7 61.9999 101.1 61.1999C100.4 61.0999 99.7002 60.9999 99.3002 60.8999C80.5002 58.2999 57.1002 56.6999 43.9002 58.3999C39.9002 58.8999 36.2002 59.5999 32.7002 60.4999C-14.4998 72.4999 -8.6998 116 42.2002 162.3Z" fill="#DADADA"/>
<path d="M262 165.4C261.9 165.2 261.4 164.5 260.7 163.7C259.5 162.1 257.8 159.9 256.3 158.2C256.4 161.5 256.5 164.2 256.3 166.7C257.5 168.3 259.3 171.5 260.4 173.6C260.9 174.5 261.2 175.1 261.3 175.3C275 206 271 234.1 246.3 241.7C243.7 242.5 240.9 243.1 238 243.6C233.2 244.3 228.3 244.8 223.3 245C222.9 245 222.4 245 222 245C220.2 245 218.3 245 216.4 245C214.8 245 213.2 244.9 211.6 244.8C204.7 244.4 197.6 243.5 190.4 241.9C187.9 241.4 185.3 240.8 182.8 240.1C167.9 236.2 152.3 229.9 136.3 220.8C133.8 219.4 131.2 217.8 128.6 216.2C124.2 213.4 119.7 210.5 115.2 207.3L106.8 206.8L104.4 206.6C112 212.2 119.9 217.4 127.9 222.1C130.5 223.6 133.1 225.1 135.7 226.5C151 234.9 166.8 241.5 182.1 246.3C184.6 247.1 187 247.8 189.4 248.5C192.2 249.3 194.9 249.9 197.6 250.6C199.5 251 201.3 251.4 203.2 251.8C207.2 252.6 211.2 253.2 215 253.7C227 255.2 238.2 255.3 248.1 253.8C251.4 253.3 254.5 252.6 257.4 251.7C291.3 241.1 290.1 204.6 262 165.4Z" fill="#DADADA"/>
<path d="M117.5 198.6C117.5 198.6 125.1 196.3 118.9 189.7C118.9 189.7 115.4 185.7 103.3 182.4C104.6 181.3 106.9 179.2 109.2 176.8L112.2 179C112.4 179.1 112.5 179.3 112.7 179.4C112.9 179.5 113 179.5 113.2 179.6C114.6 180 116.2 179.2 116.6 177.7C116.9 176.7 116.7 175.7 116.1 175C115.8 174.6 115.4 174.4 114.9 174.2C114.8 174.2 114.7 174.2 114.7 174.1L112.7 172.9C116.1 168.8 118.6 164.4 116.6 161.9L115.2 160.6C115.2 160.6 110.9 168.4 91.9002 179.9C91.0002 179.8 90.2002 179.6 89.3002 179.5C87.0002 179.2 84.6002 178.9 82.0002 178.7C82.0002 178.7 81.7002 178.7 81.3002 178.6C80.2002 178.4 77.9002 178.1 75.2002 177.7C73.2002 177.4 71.0002 177.1 68.8002 176.7C66.6002 176.4 64.3002 176 62.4002 175.8L66.8002 173.8L69.8002 172.4C69.8002 172.4 70.2002 172 70.3002 171.6C70.4002 171.4 70.3002 171.2 70.0002 171.1C69.6002 171 68.8002 171.1 67.4002 171.6L65.9002 172.1L60.0002 174L55.6002 166.8L55.0002 165.7L51.8002 160.4C51.8002 160.4 49.1002 155.3 49.9002 161.6C49.9002 161.6 51.6002 170.4 54.2002 174.7L40.1002 177.6C40.1002 177.6 38.0002 178.5 41.1002 178.6L55.0002 178.5C55.2002 178.9 55.5002 179.4 55.9002 180C56.0002 180.2 56.1002 180.4 56.3002 180.6C57.5002 182.3 59.5002 184.1 62.3002 185.9C63.8002 186.9 65.9002 188 68.9002 189.3C63.3002 190.1 47.0002 191.9 27.7002 190.1C27.7002 190.1 19.2002 190.2 34.3002 194.4C34.3002 194.4 35.2002 197 35.7002 198.4C36.3002 200.1 39.7002 199.9 39.9002 198.2C40.0002 197.3 39.1002 195.5 39.1002 195.5C44.0002 196.3 49.0002 196.5 55.6002 196.4C55.6002 196.4 57.8002 200.1 58.9002 201.3C59.4002 201.8 60.0002 202 60.7002 202.1C61.0002 202.1 61.2002 202.1 61.5002 202.1C63.0002 201.9 64.4002 201.1 64.7002 200.1C64.9002 199.5 64.9002 198.8 64.7002 198.2C64.6002 197.8 64.3002 197.5 64.1002 197.1L63.4002 196C67.7002 195.7 72.3002 195.2 76.9002 194.4C78.4002 194.2 79.9002 193.9 81.4002 193.6C82.4002 193.9 83.5002 194.2 84.6002 194.5C85.8002 194.8 87.0002 195.2 88.3002 195.5C91.0002 196.2 94.0002 197 97.2002 197.7C97.2002 197.7 99.9002 198.4 103.6 198.9C107.9 199.5 113.3 199.8 117.5 198.6Z" fill="#D5D5D5"/>
<path d="M345.031 183.042V190.187H341.611V183.042L334.911 171.803H337.924C338.221 171.803 338.454 171.875 338.623 172.02C338.801 172.164 338.95 172.346 339.068 172.566L342.437 178.707C342.632 179.071 342.802 179.419 342.946 179.749C343.09 180.071 343.221 180.389 343.34 180.703C343.45 180.381 343.573 180.059 343.709 179.736C343.853 179.406 344.022 179.063 344.217 178.707L347.561 172.566C347.654 172.38 347.794 172.206 347.98 172.045C348.167 171.884 348.404 171.803 348.692 171.803H351.718L345.031 183.042ZM370.108 180.995C370.108 182.343 369.883 183.593 369.434 184.746C368.985 185.89 368.353 186.881 367.54 187.72C366.726 188.559 365.747 189.216 364.603 189.691C363.459 190.157 362.192 190.39 360.802 190.39C359.412 190.39 358.14 190.157 356.988 189.691C355.844 189.216 354.86 188.559 354.038 187.72C353.225 186.881 352.593 185.89 352.144 184.746C351.695 183.593 351.47 182.343 351.47 180.995C351.47 179.648 351.695 178.402 352.144 177.257C352.593 176.105 353.225 175.109 354.038 174.27C354.86 173.431 355.844 172.778 356.988 172.312C358.14 171.837 359.412 171.6 360.802 171.6C362.192 171.6 363.459 171.837 364.603 172.312C365.747 172.787 366.726 173.443 367.54 174.283C368.353 175.113 368.985 176.105 369.434 177.257C369.883 178.402 370.108 179.648 370.108 180.995ZM366.599 180.995C366.599 179.987 366.463 179.084 366.192 178.287C365.929 177.482 365.548 176.8 365.048 176.24C364.548 175.681 363.938 175.253 363.217 174.956C362.505 174.66 361.7 174.511 360.802 174.511C359.903 174.511 359.094 174.66 358.373 174.956C357.653 175.253 357.039 175.681 356.53 176.24C356.03 176.8 355.644 177.482 355.373 178.287C355.102 179.084 354.966 179.987 354.966 180.995C354.966 182.004 355.102 182.911 355.373 183.716C355.644 184.512 356.03 185.19 356.53 185.75C357.039 186.301 357.653 186.725 358.373 187.021C359.094 187.318 359.903 187.466 360.802 187.466C361.7 187.466 362.505 187.318 363.217 187.021C363.938 186.725 364.548 186.301 365.048 185.75C365.548 185.19 365.929 184.512 366.192 183.716C366.463 182.911 366.599 182.004 366.599 180.995ZM380.21 187.428C380.871 187.428 381.46 187.318 381.977 187.097C382.502 186.877 382.943 186.568 383.299 186.169C383.664 185.771 383.939 185.288 384.125 184.72C384.32 184.152 384.418 183.517 384.418 182.813V171.803H387.838V182.813C387.838 183.906 387.66 184.919 387.304 185.852C386.956 186.775 386.452 187.576 385.791 188.254C385.13 188.924 384.329 189.449 383.388 189.831C382.447 190.204 381.388 190.39 380.21 190.39C379.032 190.39 377.972 190.204 377.032 189.831C376.091 189.449 375.29 188.924 374.629 188.254C373.976 187.576 373.472 186.775 373.116 185.852C372.768 184.919 372.595 183.906 372.595 182.813V171.803H376.014V182.8C376.014 183.504 376.108 184.14 376.294 184.707C376.489 185.275 376.765 185.763 377.12 186.169C377.476 186.568 377.913 186.877 378.43 187.097C378.955 187.318 379.549 187.428 380.21 187.428ZM394.844 183.004V190.187H391.424V171.803H397.03C398.285 171.803 399.357 171.935 400.247 172.198C401.145 172.452 401.878 172.812 402.446 173.278C403.023 173.744 403.442 174.304 403.705 174.956C403.976 175.6 404.112 176.312 404.112 177.092C404.112 177.711 404.018 178.296 403.832 178.847C403.654 179.397 403.391 179.898 403.044 180.347C402.705 180.796 402.281 181.19 401.772 181.529C401.272 181.868 400.7 182.139 400.056 182.343C400.488 182.588 400.861 182.94 401.175 183.398L405.777 190.187H402.7C402.404 190.187 402.15 190.127 401.938 190.009C401.734 189.89 401.561 189.721 401.416 189.5L397.552 183.614C397.408 183.394 397.247 183.237 397.069 183.144C396.899 183.05 396.645 183.004 396.306 183.004H394.844ZM394.844 180.55H396.98C397.624 180.55 398.183 180.47 398.658 180.309C399.141 180.148 399.535 179.927 399.84 179.648C400.154 179.359 400.387 179.02 400.539 178.63C400.692 178.241 400.768 177.813 400.768 177.346C400.768 176.414 400.459 175.698 399.84 175.198C399.23 174.698 398.293 174.448 397.03 174.448H394.844V180.55ZM425.842 171.803V174.613H420.312V190.187H416.892V174.613H411.336V171.803H425.842ZM431.543 183.004V190.187H428.123V171.803H433.73C434.984 171.803 436.056 171.935 436.946 172.198C437.845 172.452 438.578 172.812 439.146 173.278C439.722 173.744 440.142 174.304 440.404 174.956C440.676 175.6 440.811 176.312 440.811 177.092C440.811 177.711 440.718 178.296 440.531 178.847C440.353 179.397 440.091 179.898 439.743 180.347C439.404 180.796 438.98 181.19 438.472 181.529C437.972 181.868 437.4 182.139 436.756 182.343C437.188 182.588 437.561 182.94 437.874 183.398L442.477 190.187H439.4C439.103 190.187 438.849 190.127 438.637 190.009C438.434 189.89 438.26 189.721 438.116 189.5L434.251 183.614C434.107 183.394 433.946 183.237 433.768 183.144C433.599 183.05 433.344 183.004 433.005 183.004H431.543ZM431.543 180.55H433.679C434.323 180.55 434.883 180.47 435.357 180.309C435.84 180.148 436.234 179.927 436.54 179.648C436.853 179.359 437.086 179.02 437.239 178.63C437.391 178.241 437.468 177.813 437.468 177.346C437.468 176.414 437.158 175.698 436.54 175.198C435.929 174.698 434.993 174.448 433.73 174.448H431.543V180.55ZM451.424 187.428C452.085 187.428 452.674 187.318 453.191 187.097C453.716 186.877 454.157 186.568 454.513 186.169C454.877 185.771 455.153 185.288 455.339 184.72C455.534 184.152 455.632 183.517 455.632 182.813V171.803H459.052V182.813C459.052 183.906 458.874 184.919 458.518 185.852C458.17 186.775 457.666 187.576 457.005 188.254C456.344 188.924 455.543 189.449 454.602 189.831C453.661 190.204 452.602 190.39 451.424 190.39C450.246 190.39 449.186 190.204 448.245 189.831C447.305 189.449 446.504 188.924 445.843 188.254C445.19 187.576 444.686 186.775 444.33 185.852C443.982 184.919 443.808 183.906 443.808 182.813V171.803H447.228V182.8C447.228 183.504 447.322 184.14 447.508 184.707C447.703 185.275 447.978 185.763 448.334 186.169C448.69 186.568 449.127 186.877 449.644 187.097C450.169 187.318 450.763 187.428 451.424 187.428ZM472.376 175.147C472.283 175.333 472.173 175.465 472.046 175.541C471.927 175.617 471.783 175.656 471.613 175.656C471.444 175.656 471.253 175.592 471.041 175.465C470.829 175.329 470.579 175.181 470.291 175.02C470.003 174.859 469.664 174.715 469.274 174.588C468.893 174.452 468.439 174.384 467.914 174.384C467.439 174.384 467.024 174.444 466.668 174.562C466.32 174.672 466.024 174.829 465.778 175.033C465.541 175.236 465.363 175.482 465.244 175.77C465.125 176.05 465.066 176.359 465.066 176.698C465.066 177.13 465.185 177.49 465.422 177.779C465.668 178.067 465.99 178.313 466.388 178.516C466.787 178.719 467.24 178.902 467.748 179.063C468.257 179.224 468.774 179.397 469.299 179.584C469.833 179.762 470.355 179.974 470.863 180.22C471.372 180.457 471.825 180.762 472.224 181.135C472.622 181.499 472.94 181.949 473.177 182.483C473.423 183.017 473.546 183.665 473.546 184.428C473.546 185.258 473.402 186.038 473.113 186.767C472.834 187.487 472.418 188.119 471.868 188.661C471.325 189.195 470.66 189.619 469.872 189.933C469.083 190.238 468.181 190.39 467.164 190.39C466.579 190.39 466.003 190.331 465.435 190.212C464.867 190.102 464.32 189.941 463.795 189.729C463.278 189.517 462.79 189.263 462.333 188.966C461.883 188.67 461.481 188.339 461.125 187.975L462.117 186.335C462.21 186.216 462.32 186.119 462.447 186.042C462.583 185.958 462.731 185.915 462.892 185.915C463.104 185.915 463.333 186.004 463.579 186.182C463.824 186.352 464.112 186.542 464.443 186.754C464.782 186.966 465.176 187.161 465.625 187.339C466.083 187.509 466.63 187.593 467.265 187.593C468.24 187.593 468.994 187.364 469.528 186.907C470.062 186.441 470.329 185.775 470.329 184.911C470.329 184.428 470.206 184.034 469.961 183.728C469.723 183.423 469.405 183.169 469.007 182.966C468.609 182.754 468.155 182.576 467.647 182.432C467.138 182.288 466.621 182.131 466.096 181.961C465.57 181.792 465.053 181.588 464.545 181.351C464.036 181.114 463.583 180.804 463.184 180.423C462.786 180.042 462.464 179.567 462.218 178.999C461.981 178.423 461.862 177.715 461.862 176.876C461.862 176.206 461.994 175.554 462.256 174.918C462.528 174.283 462.917 173.719 463.426 173.227C463.943 172.736 464.574 172.342 465.32 172.045C466.066 171.748 466.918 171.6 467.876 171.6C468.96 171.6 469.961 171.77 470.876 172.109C471.791 172.448 472.571 172.922 473.215 173.532L472.376 175.147ZM489.11 171.803V174.613H483.58V190.187H480.16V174.613H474.604V171.803H489.11ZM502.872 171.803V174.524H494.722V179.622H501.143V182.254H494.722V187.453H502.872V190.187H491.277V171.803H502.872ZM522.152 180.995C522.152 182.343 521.927 183.58 521.478 184.707C521.029 185.835 520.397 186.805 519.583 187.619C518.77 188.432 517.791 189.064 516.647 189.513C515.503 189.962 514.235 190.187 512.845 190.187H505.828V171.803H512.845C514.235 171.803 515.503 172.032 516.647 172.49C517.791 172.939 518.77 173.571 519.583 174.384C520.397 175.189 521.029 176.156 521.478 177.283C521.927 178.41 522.152 179.648 522.152 180.995ZM518.655 180.995C518.655 179.987 518.52 179.084 518.249 178.287C517.977 177.482 517.592 176.804 517.092 176.253C516.592 175.694 515.981 175.266 515.261 174.969C514.549 174.672 513.744 174.524 512.845 174.524H509.273V187.466H512.845C513.744 187.466 514.549 187.318 515.261 187.021C515.981 186.725 516.592 186.301 517.092 185.75C517.592 185.19 517.977 184.512 518.249 183.716C518.52 182.911 518.655 182.004 518.655 180.995ZM541.334 171.803V174.524H533.185V179.965H540.063V182.699H533.185V190.187H529.74V171.803H541.334ZM547.551 183.004V190.187H544.131V171.803H549.738C550.992 171.803 552.065 171.935 552.954 172.198C553.853 172.452 554.586 172.812 555.154 173.278C555.73 173.744 556.15 174.304 556.412 174.956C556.684 175.6 556.819 176.312 556.819 177.092C556.819 177.711 556.726 178.296 556.54 178.847C556.362 179.397 556.099 179.898 555.751 180.347C555.412 180.796 554.989 181.19 554.48 181.529C553.98 181.868 553.408 182.139 552.764 182.343C553.196 182.588 553.569 182.94 553.883 183.398L558.485 190.187H555.408C555.111 190.187 554.857 190.127 554.645 190.009C554.442 189.89 554.268 189.721 554.124 189.5L550.259 183.614C550.115 183.394 549.954 183.237 549.776 183.144C549.607 183.05 549.352 183.004 549.013 183.004H547.551ZM547.551 180.55H549.687C550.331 180.55 550.891 180.47 551.365 180.309C551.848 180.148 552.243 179.927 552.548 179.648C552.861 179.359 553.094 179.02 553.247 178.63C553.399 178.241 553.476 177.813 553.476 177.346C553.476 176.414 553.166 175.698 552.548 175.198C551.937 174.698 551.001 174.448 549.738 174.448H547.551V180.55ZM564.53 190.187H561.098V171.803H564.53V190.187ZM580.268 171.803V174.524H572.119V179.622H578.539V182.254H572.119V187.453H580.268V190.187H568.674V171.803H580.268ZM585.017 171.803C585.17 171.803 585.297 171.812 585.398 171.829C585.5 171.837 585.589 171.863 585.665 171.905C585.75 171.939 585.831 171.994 585.907 172.07C585.983 172.138 586.068 172.231 586.161 172.35L595.811 184.644C595.777 184.347 595.751 184.059 595.734 183.779C595.726 183.491 595.722 183.224 595.722 182.978V171.803H598.735V190.187H596.967C596.696 190.187 596.472 190.144 596.294 190.06C596.116 189.975 595.942 189.822 595.772 189.602L586.161 177.359C586.187 177.63 586.204 177.902 586.212 178.173C586.229 178.436 586.237 178.677 586.237 178.897V190.187H583.224V171.803H585.017ZM618.767 180.995C618.767 182.343 618.542 183.58 618.093 184.707C617.644 185.835 617.013 186.805 616.199 187.619C615.385 188.432 614.406 189.064 613.262 189.513C612.118 189.962 610.851 190.187 609.461 190.187H602.443V171.803H609.461C610.851 171.803 612.118 172.032 613.262 172.49C614.406 172.939 615.385 173.571 616.199 174.384C617.013 175.189 617.644 176.156 618.093 177.283C618.542 178.41 618.767 179.648 618.767 180.995ZM615.271 180.995C615.271 179.987 615.135 179.084 614.864 178.287C614.593 177.482 614.207 176.804 613.707 176.253C613.207 175.694 612.597 175.266 611.876 174.969C611.165 174.672 610.359 174.524 609.461 174.524H605.889V187.466H609.461C610.359 187.466 611.165 187.318 611.876 187.021C612.597 186.725 613.207 186.301 613.707 185.75C614.207 185.19 614.593 184.512 614.864 183.716C615.135 182.911 615.271 182.004 615.271 180.995ZM637.95 171.803V174.524H629.8V179.965H636.678V182.699H629.8V190.187H626.355V171.803H637.95ZM658.266 180.995C658.266 182.343 658.041 183.593 657.592 184.746C657.143 185.89 656.511 186.881 655.698 187.72C654.884 188.559 653.905 189.216 652.761 189.691C651.617 190.157 650.35 190.39 648.96 190.39C647.57 190.39 646.298 190.157 645.146 189.691C644.002 189.216 643.018 188.559 642.196 187.72C641.383 186.881 640.751 185.89 640.302 184.746C639.853 183.593 639.628 182.343 639.628 180.995C639.628 179.648 639.853 178.402 640.302 177.257C640.751 176.105 641.383 175.109 642.196 174.27C643.018 173.431 644.002 172.778 645.146 172.312C646.298 171.837 647.57 171.6 648.96 171.6C650.35 171.6 651.617 171.837 652.761 172.312C653.905 172.787 654.884 173.443 655.698 174.283C656.511 175.113 657.143 176.105 657.592 177.257C658.041 178.402 658.266 179.648 658.266 180.995ZM654.757 180.995C654.757 179.987 654.621 179.084 654.35 178.287C654.087 177.482 653.706 176.8 653.206 176.24C652.706 175.681 652.096 175.253 651.375 174.956C650.663 174.66 649.858 174.511 648.96 174.511C648.061 174.511 647.252 174.66 646.532 174.956C645.811 175.253 645.197 175.681 644.688 176.24C644.188 176.8 643.802 177.482 643.531 178.287C643.26 179.084 643.124 179.987 643.124 180.995C643.124 182.004 643.26 182.911 643.531 183.716C643.802 184.512 644.188 185.19 644.688 185.75C645.197 186.301 645.811 186.725 646.532 187.021C647.252 187.318 648.061 187.466 648.96 187.466C649.858 187.466 650.663 187.318 651.375 187.021C652.096 186.725 652.706 186.301 653.206 185.75C653.706 185.19 654.087 184.512 654.35 183.716C654.621 182.911 654.757 182.004 654.757 180.995ZM664.503 183.004V190.187H661.083V171.803H666.69C667.944 171.803 669.016 171.935 669.906 172.198C670.805 172.452 671.538 172.812 672.106 173.278C672.682 173.744 673.101 174.304 673.364 174.956C673.635 175.6 673.771 176.312 673.771 177.092C673.771 177.711 673.678 178.296 673.491 178.847C673.313 179.397 673.051 179.898 672.703 180.347C672.364 180.796 671.94 181.19 671.432 181.529C670.932 181.868 670.36 182.139 669.715 182.343C670.148 182.588 670.521 182.94 670.834 183.398L675.436 190.187H672.36C672.063 190.187 671.809 190.127 671.597 190.009C671.394 189.89 671.22 189.721 671.076 189.5L667.211 183.614C667.067 183.394 666.906 183.237 666.728 183.144C666.558 183.05 666.304 183.004 665.965 183.004H664.503ZM664.503 180.55H666.639C667.283 180.55 667.842 180.47 668.317 180.309C668.8 180.148 669.194 179.927 669.499 179.648C669.813 179.359 670.046 179.02 670.199 178.63C670.351 178.241 670.427 177.813 670.427 177.346C670.427 176.414 670.118 175.698 669.499 175.198C668.889 174.698 667.953 174.448 666.69 174.448H664.503V180.55ZM698.705 190.187H696.061C695.764 190.187 695.518 190.115 695.323 189.971C695.137 189.818 695.001 189.632 694.916 189.411L693.543 185.661H685.928L684.555 189.411C684.487 189.606 684.352 189.784 684.148 189.945C683.953 190.106 683.712 190.187 683.424 190.187H680.767L687.988 171.803H691.484L698.705 190.187ZM686.805 183.245H692.666L690.429 177.13C690.327 176.859 690.213 176.541 690.085 176.177C689.967 175.804 689.848 175.401 689.729 174.969C689.611 175.401 689.492 175.804 689.373 176.177C689.263 176.55 689.153 176.876 689.043 177.156L686.805 183.245ZM700.598 190.187V171.803H706.942C708.146 171.803 709.171 171.918 710.019 172.147C710.875 172.376 711.574 172.702 712.116 173.126C712.667 173.549 713.07 174.062 713.324 174.664C713.578 175.266 713.706 175.944 713.706 176.698C713.706 177.13 713.642 177.546 713.515 177.944C713.388 178.334 713.189 178.702 712.917 179.05C712.655 179.389 712.316 179.698 711.9 179.978C711.494 180.258 711.006 180.495 710.438 180.69C712.964 181.258 714.227 182.622 714.227 184.784C714.227 185.563 714.079 186.284 713.782 186.945C713.485 187.606 713.053 188.178 712.485 188.661C711.917 189.136 711.218 189.509 710.387 189.78C709.557 190.051 708.608 190.187 707.54 190.187H700.598ZM704.018 182.127V187.517H707.489C708.125 187.517 708.654 187.441 709.078 187.288C709.51 187.136 709.854 186.932 710.108 186.678C710.371 186.424 710.557 186.127 710.667 185.788C710.786 185.449 710.845 185.089 710.845 184.707C710.845 184.309 710.782 183.953 710.654 183.639C710.527 183.317 710.328 183.046 710.057 182.826C709.786 182.597 709.438 182.423 709.014 182.305C708.591 182.186 708.078 182.127 707.476 182.127H704.018ZM704.018 179.762H706.751C707.913 179.762 708.794 179.55 709.396 179.126C709.998 178.702 710.298 178.029 710.298 177.105C710.298 176.147 710.027 175.465 709.485 175.058C708.942 174.651 708.095 174.448 706.942 174.448H704.018V179.762ZM720.695 183.004V190.187H717.275V171.803H722.881C724.136 171.803 725.208 171.935 726.098 172.198C726.996 172.452 727.729 172.812 728.297 173.278C728.873 173.744 729.293 174.304 729.556 174.956C729.827 175.6 729.962 176.312 729.962 177.092C729.962 177.711 729.869 178.296 729.683 178.847C729.505 179.397 729.242 179.898 728.895 180.347C728.556 180.796 728.132 181.19 727.623 181.529C727.123 181.868 726.551 182.139 725.907 182.343C726.339 182.588 726.712 182.94 727.026 183.398L731.628 190.187H728.551C728.255 190.187 728 190.127 727.788 190.009C727.585 189.89 727.411 189.721 727.267 189.5L723.402 183.614C723.258 183.394 723.097 183.237 722.919 183.144C722.75 183.05 722.496 183.004 722.157 183.004H720.695ZM720.695 180.55H722.83C723.474 180.55 724.034 180.47 724.508 180.309C724.992 180.148 725.386 179.927 725.691 179.648C726.004 179.359 726.237 179.02 726.39 178.63C726.543 178.241 726.619 177.813 726.619 177.346C726.619 176.414 726.31 175.698 725.691 175.198C725.081 174.698 724.144 174.448 722.881 174.448H720.695V180.55ZM750.834 180.995C750.834 182.343 750.609 183.593 750.16 184.746C749.711 185.89 749.08 186.881 748.266 187.72C747.452 188.559 746.473 189.216 745.329 189.691C744.185 190.157 742.918 190.39 741.528 190.39C740.138 190.39 738.867 190.157 737.714 189.691C736.57 189.216 735.587 188.559 734.764 187.72C733.951 186.881 733.319 185.89 732.87 184.746C732.421 183.593 732.196 182.343 732.196 180.995C732.196 179.648 732.421 178.402 732.87 177.257C733.319 176.105 733.951 175.109 734.764 174.27C735.587 173.431 736.57 172.778 737.714 172.312C738.867 171.837 740.138 171.6 741.528 171.6C742.918 171.6 744.185 171.837 745.329 172.312C746.473 172.787 747.452 173.443 748.266 174.283C749.08 175.113 749.711 176.105 750.16 177.257C750.609 178.402 750.834 179.648 750.834 180.995ZM747.325 180.995C747.325 179.987 747.19 179.084 746.918 178.287C746.656 177.482 746.274 176.8 745.774 176.24C745.274 175.681 744.664 175.253 743.943 174.956C743.231 174.66 742.426 174.511 741.528 174.511C740.629 174.511 739.82 174.66 739.1 174.956C738.379 175.253 737.765 175.681 737.256 176.24C736.756 176.8 736.371 177.482 736.099 178.287C735.828 179.084 735.693 179.987 735.693 180.995C735.693 182.004 735.828 182.911 736.099 183.716C736.371 184.512 736.756 185.19 737.256 185.75C737.765 186.301 738.379 186.725 739.1 187.021C739.82 187.318 740.629 187.466 741.528 187.466C742.426 187.466 743.231 187.318 743.943 187.021C744.664 186.725 745.274 186.301 745.774 185.75C746.274 185.19 746.656 184.512 746.918 183.716C747.19 182.911 747.325 182.004 747.325 180.995ZM769.05 190.187H766.406C766.109 190.187 765.863 190.115 765.668 189.971C765.482 189.818 765.346 189.632 765.261 189.411L763.888 185.661H756.273L754.9 189.411C754.832 189.606 754.697 189.784 754.493 189.945C754.298 190.106 754.057 190.187 753.769 190.187H751.111L758.333 171.803H761.829L769.05 190.187ZM757.15 183.245H763.011L760.774 177.13C760.672 176.859 760.557 176.541 760.43 176.177C760.312 175.804 760.193 175.401 760.074 174.969C759.956 175.401 759.837 175.804 759.718 176.177C759.608 176.55 759.498 176.876 759.388 177.156L757.15 183.245ZM787.267 180.995C787.267 182.343 787.042 183.58 786.593 184.707C786.144 185.835 785.512 186.805 784.699 187.619C783.885 188.432 782.906 189.064 781.762 189.513C780.618 189.962 779.351 190.187 777.961 190.187H770.943V171.803H777.961C779.351 171.803 780.618 172.032 781.762 172.49C782.906 172.939 783.885 173.571 784.699 174.384C785.512 175.189 786.144 176.156 786.593 177.283C787.042 178.41 787.267 179.648 787.267 180.995ZM783.771 180.995C783.771 179.987 783.635 179.084 783.364 178.287C783.093 177.482 782.707 176.804 782.207 176.253C781.707 175.694 781.097 175.266 780.376 174.969C779.664 174.672 778.859 174.524 777.961 174.524H774.388V187.466H777.961C778.859 187.466 779.664 187.318 780.376 187.021C781.097 186.725 781.707 186.301 782.207 185.75C782.707 185.19 783.093 184.512 783.364 183.716C783.635 182.911 783.771 182.004 783.771 180.995ZM804.708 175.147C804.614 175.333 804.504 175.465 804.377 175.541C804.258 175.617 804.114 175.656 803.945 175.656C803.775 175.656 803.585 175.592 803.373 175.465C803.161 175.329 802.911 175.181 802.623 175.02C802.335 174.859 801.996 174.715 801.606 174.588C801.224 174.452 800.771 174.384 800.245 174.384C799.771 174.384 799.355 174.444 798.999 174.562C798.652 174.672 798.355 174.829 798.109 175.033C797.872 175.236 797.694 175.482 797.576 175.77C797.457 176.05 797.398 176.359 797.398 176.698C797.398 177.13 797.516 177.49 797.754 177.779C797.999 178.067 798.321 178.313 798.72 178.516C799.118 178.719 799.572 178.902 800.08 179.063C800.589 179.224 801.106 179.397 801.631 179.584C802.165 179.762 802.686 179.974 803.195 180.22C803.703 180.457 804.157 180.762 804.555 181.135C804.953 181.499 805.271 181.949 805.509 182.483C805.754 183.017 805.877 183.665 805.877 184.428C805.877 185.258 805.733 186.038 805.445 186.767C805.165 187.487 804.75 188.119 804.199 188.661C803.657 189.195 802.991 189.619 802.203 189.933C801.415 190.238 800.512 190.39 799.495 190.39C798.91 190.39 798.334 190.331 797.766 190.212C797.198 190.102 796.652 189.941 796.126 189.729C795.609 189.517 795.122 189.263 794.664 188.966C794.215 188.67 793.812 188.339 793.456 187.975L794.448 186.335C794.541 186.216 794.651 186.119 794.779 186.042C794.914 185.958 795.063 185.915 795.224 185.915C795.435 185.915 795.664 186.004 795.91 186.182C796.156 186.352 796.444 186.542 796.775 186.754C797.114 186.966 797.508 187.161 797.957 187.339C798.415 187.509 798.961 187.593 799.597 187.593C800.572 187.593 801.326 187.364 801.86 186.907C802.394 186.441 802.661 185.775 802.661 184.911C802.661 184.428 802.538 184.034 802.292 183.728C802.055 183.423 801.737 183.169 801.339 182.966C800.94 182.754 800.487 182.576 799.978 182.432C799.47 182.288 798.953 182.131 798.427 181.961C797.902 181.792 797.385 181.588 796.876 181.351C796.368 181.114 795.914 180.804 795.516 180.423C795.118 180.042 794.796 179.567 794.55 178.999C794.312 178.423 794.194 177.715 794.194 176.876C794.194 176.206 794.325 175.554 794.588 174.918C794.859 174.283 795.249 173.719 795.758 173.227C796.275 172.736 796.906 172.342 797.652 172.045C798.398 171.748 799.249 171.6 800.207 171.6C801.292 171.6 802.292 171.77 803.207 172.109C804.123 172.448 804.903 172.922 805.547 173.532L804.708 175.147ZM821.442 171.803V174.613H815.911V190.187H812.492V174.613H806.936V171.803H821.442ZM831.008 187.428C831.669 187.428 832.258 187.318 832.775 187.097C833.3 186.877 833.741 186.568 834.097 186.169C834.461 185.771 834.737 185.288 834.923 184.72C835.118 184.152 835.216 183.517 835.216 182.813V171.803H838.636V182.813C838.636 183.906 838.458 184.919 838.102 185.852C837.754 186.775 837.25 187.576 836.589 188.254C835.928 188.924 835.127 189.449 834.186 189.831C833.245 190.204 832.186 190.39 831.008 190.39C829.83 190.39 828.77 190.204 827.829 189.831C826.889 189.449 826.088 188.924 825.427 188.254C824.774 187.576 824.27 186.775 823.914 185.852C823.566 184.919 823.393 183.906 823.393 182.813V171.803H826.812V182.8C826.812 183.504 826.906 184.14 827.092 184.707C827.287 185.275 827.562 185.763 827.918 186.169C828.274 186.568 828.711 186.877 829.228 187.097C829.753 187.318 830.347 187.428 831.008 187.428ZM858.431 180.995C858.431 182.343 858.207 183.58 857.757 184.707C857.308 185.835 856.677 186.805 855.863 187.619C855.049 188.432 854.07 189.064 852.926 189.513C851.782 189.962 850.515 190.187 849.125 190.187H842.107V171.803H849.125C850.515 171.803 851.782 172.032 852.926 172.49C854.07 172.939 855.049 173.571 855.863 174.384C856.677 175.189 857.308 176.156 857.757 177.283C858.207 178.41 858.431 179.648 858.431 180.995ZM854.935 180.995C854.935 179.987 854.799 179.084 854.528 178.287C854.257 177.482 853.871 176.804 853.371 176.253C852.871 175.694 852.261 175.266 851.541 174.969C850.829 174.672 850.023 174.524 849.125 174.524H845.553V187.466H849.125C850.023 187.466 850.829 187.318 851.541 187.021C852.261 186.725 852.871 186.301 853.371 185.75C853.871 185.19 854.257 184.512 854.528 183.716C854.799 182.911 854.935 182.004 854.935 180.995ZM868.259 183.042V190.187H864.839V183.042L858.14 171.803H861.153C861.449 171.803 861.682 171.875 861.852 172.02C862.03 172.164 862.178 172.346 862.297 172.566L865.666 178.707C865.861 179.071 866.03 179.419 866.174 179.749C866.318 180.071 866.45 180.389 866.568 180.703C866.679 180.381 866.801 180.059 866.937 179.736C867.081 179.406 867.251 179.063 867.446 178.707L870.789 172.566C870.882 172.38 871.022 172.206 871.209 172.045C871.395 171.884 871.632 171.803 871.921 171.803H874.946L868.259 183.042Z" fill="white"/>
<path d="M368.358 220.518L367.425 228.128H366.106L368.411 209.271H372.942C374.79 209.271 376.176 209.689 377.1 210.524C378.024 211.35 378.486 212.514 378.486 214.015C378.486 214.975 378.321 215.854 377.993 216.654C377.664 217.445 377.197 218.129 376.593 218.706C375.989 219.275 375.261 219.719 374.408 220.039C373.555 220.359 372.604 220.518 371.556 220.518H368.358ZM369.61 210.324L368.491 219.452H371.689C372.524 219.452 373.275 219.319 373.941 219.053C374.617 218.786 375.19 218.417 375.66 217.946C376.14 217.476 376.509 216.916 376.767 216.267C377.024 215.619 377.153 214.913 377.153 214.149C377.153 212.94 376.789 212.003 376.06 211.337C375.341 210.661 374.257 210.324 372.809 210.324H369.61ZM388.393 228.128H387.78C387.611 228.128 387.491 228.088 387.42 228.008C387.358 227.928 387.327 227.83 387.327 227.715L387.767 223.543C387.429 224.254 387.056 224.903 386.647 225.489C386.247 226.067 385.817 226.564 385.355 226.982C384.902 227.399 384.422 227.723 383.915 227.954C383.409 228.185 382.885 228.301 382.343 228.301C381.783 228.301 381.295 228.194 380.877 227.981C380.459 227.759 380.109 227.448 379.824 227.048C379.549 226.648 379.34 226.164 379.198 225.596C379.056 225.027 378.985 224.387 378.985 223.677C378.985 222.904 379.082 222.149 379.278 221.411C379.473 220.665 379.749 219.959 380.104 219.292C380.468 218.626 380.899 218.013 381.397 217.453C381.894 216.894 382.441 216.41 383.036 216.001C383.64 215.592 384.284 215.272 384.968 215.041C385.652 214.81 386.359 214.695 387.087 214.695C387.62 214.695 388.118 214.744 388.58 214.841C389.042 214.93 389.499 215.09 389.952 215.321L388.393 228.128ZM382.756 227.248C383.262 227.248 383.76 227.106 384.249 226.822C384.746 226.537 385.217 226.138 385.661 225.622C386.105 225.098 386.523 224.472 386.914 223.743C387.314 223.006 387.669 222.193 387.98 221.305L388.646 215.908C388.122 215.73 387.553 215.641 386.94 215.641C386.345 215.641 385.768 215.743 385.208 215.948C384.648 216.143 384.12 216.418 383.622 216.774C383.134 217.129 382.68 217.551 382.263 218.04C381.854 218.528 381.499 219.066 381.197 219.652C380.895 220.23 380.659 220.843 380.491 221.491C380.331 222.14 380.251 222.802 380.251 223.477C380.251 224.667 380.451 225.596 380.85 226.262C381.259 226.919 381.894 227.248 382.756 227.248ZM392.504 228.128L394.103 214.828H394.676C394.987 214.828 395.142 214.988 395.142 215.308L394.756 219.252C395.36 217.804 396.048 216.689 396.821 215.908C397.603 215.117 398.434 214.722 399.313 214.722C399.678 214.722 400.051 214.797 400.433 214.948L400.206 216.134C399.798 215.983 399.416 215.908 399.06 215.908C398.11 215.908 397.252 216.378 396.488 217.32C395.733 218.253 395.085 219.603 394.543 221.371L393.743 228.128H392.504ZM402.537 225.902C402.537 225.849 402.537 225.782 402.537 225.702C402.546 225.622 402.554 225.502 402.563 225.343C402.581 225.183 402.603 224.978 402.63 224.73C402.665 224.472 402.705 224.148 402.75 223.757L403.656 216.227H401.91C401.733 216.227 401.644 216.143 401.644 215.974L401.71 215.428L403.803 215.268L404.682 210.524C404.7 210.444 404.74 210.373 404.802 210.311C404.864 210.248 404.94 210.217 405.029 210.217H405.642L405.015 215.281H408.853L408.747 216.227H404.909L403.989 223.717C403.945 224.081 403.909 224.379 403.883 224.61C403.856 224.841 403.834 225.032 403.816 225.183C403.798 225.325 403.785 225.431 403.776 225.502C403.776 225.573 403.776 225.627 403.776 225.662C403.776 226.24 403.909 226.657 404.176 226.915C404.451 227.173 404.802 227.301 405.229 227.301C405.522 227.301 405.779 227.257 406.001 227.168C406.232 227.07 406.432 226.968 406.601 226.862C406.77 226.746 406.908 226.644 407.014 226.555C407.121 226.457 407.201 226.409 407.254 226.409C407.307 226.409 407.347 226.422 407.374 226.449C407.401 226.466 407.427 226.497 407.454 226.542L407.694 227.102C407.339 227.475 406.908 227.777 406.401 228.008C405.895 228.23 405.388 228.341 404.882 228.341C404.154 228.341 403.581 228.141 403.163 227.741C402.754 227.341 402.546 226.728 402.537 225.902ZM419.913 227.301C420.686 227.301 421.388 227.102 422.019 226.702C422.658 226.293 423.205 225.756 423.658 225.089C424.111 224.414 424.457 223.646 424.697 222.784C424.946 221.913 425.07 221.02 425.07 220.105C425.07 218.684 424.755 217.587 424.124 216.814C423.493 216.041 422.618 215.654 421.499 215.654C420.984 215.654 420.499 215.748 420.046 215.934C419.593 216.112 419.176 216.365 418.794 216.694C418.412 217.023 418.065 217.413 417.754 217.867C417.452 218.311 417.194 218.799 416.981 219.332C416.777 219.865 416.617 220.43 416.501 221.025C416.395 221.62 416.342 222.229 416.342 222.851C416.342 224.263 416.653 225.36 417.274 226.142C417.905 226.915 418.785 227.301 419.913 227.301ZM419.806 228.301C419.096 228.301 418.447 228.177 417.861 227.928C417.283 227.679 416.786 227.319 416.368 226.848C415.96 226.378 415.64 225.809 415.409 225.143C415.187 224.467 415.076 223.703 415.076 222.851C415.076 221.776 415.235 220.745 415.555 219.759C415.875 218.764 416.324 217.889 416.901 217.134C417.488 216.378 418.181 215.779 418.98 215.335C419.78 214.881 420.659 214.655 421.619 214.655C422.329 214.655 422.974 214.784 423.551 215.041C424.137 215.29 424.635 215.65 425.044 216.121C425.461 216.583 425.781 217.151 426.003 217.827C426.234 218.502 426.35 219.257 426.35 220.092C426.35 221.167 426.185 222.198 425.856 223.184C425.537 224.17 425.088 225.045 424.511 225.809C423.933 226.564 423.245 227.168 422.445 227.621C421.645 228.074 420.766 228.301 419.806 228.301ZM431.377 216.214L429.965 227.848L429.405 230.913C429.369 231.108 429.294 231.246 429.178 231.326C429.063 231.415 428.921 231.459 428.752 231.459H428.286L430.151 216.227L428.472 216.121C428.277 216.103 428.179 216.005 428.179 215.828C428.179 215.819 428.179 215.792 428.179 215.748C428.188 215.694 428.206 215.539 428.232 215.281H430.258L430.471 213.602C430.56 212.847 430.733 212.185 430.991 211.617C431.248 211.039 431.568 210.559 431.95 210.177C432.341 209.795 432.781 209.511 433.27 209.324C433.758 209.129 434.282 209.031 434.842 209.031C435.091 209.031 435.34 209.058 435.588 209.111C435.837 209.156 436.059 209.222 436.255 209.311L436.121 209.951C436.113 210.048 436.046 210.097 435.922 210.097C435.824 210.097 435.686 210.08 435.508 210.044C435.331 210.008 435.126 209.991 434.895 209.991C434.496 209.991 434.114 210.057 433.749 210.191C433.394 210.324 433.074 210.537 432.79 210.83C432.514 211.115 432.275 211.488 432.07 211.95C431.875 212.412 431.737 212.976 431.657 213.642L431.444 215.281H435.202L435.069 216.214H431.377ZM449.076 227.208C449.724 227.208 450.306 227.155 450.821 227.048C451.337 226.933 451.794 226.795 452.194 226.635C452.594 226.466 452.936 226.289 453.22 226.102C453.513 225.907 453.762 225.729 453.966 225.569C454.171 225.4 454.335 225.263 454.459 225.156C454.593 225.04 454.695 224.983 454.766 224.983C454.846 224.983 454.903 225.009 454.939 225.063L455.405 225.622C454.997 226.04 454.557 226.417 454.086 226.755C453.624 227.084 453.127 227.368 452.594 227.608C452.061 227.839 451.483 228.017 450.861 228.141C450.248 228.274 449.586 228.341 448.876 228.341C447.792 228.341 446.81 228.145 445.931 227.755C445.06 227.364 444.314 226.808 443.692 226.089C443.079 225.369 442.603 224.507 442.266 223.503C441.937 222.5 441.773 221.385 441.773 220.159C441.773 218.515 442.022 217.014 442.519 215.654C443.017 214.286 443.701 213.113 444.571 212.136C445.451 211.159 446.481 210.404 447.663 209.871C448.853 209.329 450.137 209.058 451.514 209.058C452.163 209.058 452.745 209.111 453.26 209.218C453.775 209.316 454.246 209.462 454.673 209.658C455.108 209.853 455.503 210.097 455.859 210.391C456.223 210.684 456.574 211.017 456.911 211.39L456.498 211.923C456.4 212.03 456.281 212.083 456.138 212.083C456.032 212.083 455.885 211.985 455.699 211.79C455.521 211.594 455.259 211.381 454.912 211.15C454.566 210.91 454.113 210.693 453.553 210.497C453.002 210.302 452.3 210.204 451.448 210.204C450.275 210.204 449.182 210.435 448.169 210.897C447.157 211.359 446.277 212.016 445.531 212.869C444.784 213.722 444.194 214.757 443.758 215.974C443.332 217.191 443.119 218.555 443.119 220.065C443.119 221.167 443.265 222.162 443.558 223.05C443.852 223.93 444.26 224.681 444.784 225.303C445.309 225.916 445.935 226.386 446.663 226.715C447.401 227.044 448.205 227.208 449.076 227.208ZM458.478 228.128L460.824 208.738H462.063L459.704 228.128H458.478ZM468.663 227.301C469.436 227.301 470.138 227.102 470.768 226.702C471.408 226.293 471.955 225.756 472.408 225.089C472.861 224.414 473.207 223.646 473.447 222.784C473.696 221.913 473.82 221.02 473.82 220.105C473.82 218.684 473.505 217.587 472.874 216.814C472.243 216.041 471.368 215.654 470.249 215.654C469.733 215.654 469.249 215.748 468.796 215.934C468.343 216.112 467.926 216.365 467.544 216.694C467.162 217.023 466.815 217.413 466.504 217.867C466.202 218.311 465.944 218.799 465.731 219.332C465.527 219.865 465.367 220.43 465.251 221.025C465.145 221.62 465.092 222.229 465.092 222.851C465.092 224.263 465.402 225.36 466.024 226.142C466.655 226.915 467.535 227.301 468.663 227.301ZM468.556 228.301C467.846 228.301 467.197 228.177 466.611 227.928C466.033 227.679 465.536 227.319 465.118 226.848C464.709 226.378 464.39 225.809 464.159 225.143C463.937 224.467 463.826 223.703 463.826 222.851C463.826 221.776 463.985 220.745 464.305 219.759C464.625 218.764 465.074 217.889 465.651 217.134C466.238 216.378 466.931 215.779 467.73 215.335C468.53 214.881 469.409 214.655 470.369 214.655C471.079 214.655 471.724 214.784 472.301 215.041C472.887 215.29 473.385 215.65 473.794 216.121C474.211 216.583 474.531 217.151 474.753 217.827C474.984 218.502 475.099 219.257 475.099 220.092C475.099 221.167 474.935 222.198 474.606 223.184C474.287 224.17 473.838 225.045 473.26 225.809C472.683 226.564 471.994 227.168 471.195 227.621C470.395 228.074 469.516 228.301 468.556 228.301ZM479.901 214.868L478.901 223.304C478.848 223.721 478.821 224.108 478.821 224.463C478.821 225.369 478.99 226.062 479.328 226.542C479.674 227.013 480.216 227.248 480.953 227.248C481.442 227.248 481.935 227.124 482.433 226.875C482.93 226.626 483.414 226.271 483.885 225.809C484.356 225.338 484.8 224.778 485.218 224.13C485.635 223.472 486.004 222.735 486.324 221.918L487.177 214.868H488.429L486.83 228.128H486.244C486.075 228.128 485.951 228.083 485.871 227.994C485.8 227.906 485.764 227.786 485.764 227.635L486.164 223.863C485.8 224.565 485.396 225.191 484.951 225.742C484.516 226.293 484.054 226.76 483.565 227.142C483.086 227.515 482.588 227.803 482.073 228.008C481.558 228.203 481.042 228.301 480.527 228.301C479.541 228.301 478.799 227.977 478.302 227.328C477.813 226.671 477.569 225.738 477.569 224.53C477.569 224.45 477.569 224.365 477.569 224.276C477.577 224.179 477.591 224.019 477.609 223.797C477.635 223.566 477.671 223.25 477.715 222.851C477.76 222.451 477.822 221.909 477.902 221.225C477.982 220.532 478.079 219.67 478.195 218.639C478.319 217.609 478.47 216.352 478.648 214.868H479.901ZM499.67 228.128C499.501 228.128 499.381 228.088 499.31 228.008C499.248 227.928 499.217 227.83 499.217 227.715L499.657 223.49C499.31 224.21 498.919 224.867 498.484 225.462C498.057 226.049 497.604 226.555 497.125 226.982C496.645 227.399 496.143 227.723 495.619 227.954C495.095 228.185 494.562 228.301 494.02 228.301C493.442 228.301 492.936 228.19 492.5 227.968C492.065 227.746 491.701 227.43 491.408 227.022C491.114 226.613 490.892 226.12 490.741 225.542C490.59 224.965 490.515 224.316 490.515 223.597C490.515 222.922 490.586 222.233 490.728 221.531C490.87 220.82 491.07 220.136 491.328 219.479C491.594 218.813 491.914 218.191 492.287 217.613C492.669 217.027 493.1 216.516 493.58 216.081C494.06 215.645 494.584 215.303 495.152 215.055C495.721 214.797 496.329 214.668 496.978 214.668C497.698 214.668 498.359 214.828 498.964 215.148C499.568 215.459 500.065 215.93 500.456 216.561L501.429 208.738H502.655L500.283 228.128H499.67ZM494.433 227.275C494.939 227.275 495.445 227.137 495.952 226.862C496.458 226.577 496.947 226.178 497.418 225.662C497.897 225.147 498.342 224.53 498.75 223.81C499.168 223.081 499.537 222.277 499.856 221.398L500.323 217.56C499.941 216.867 499.466 216.378 498.897 216.094C498.328 215.81 497.738 215.668 497.125 215.668C496.565 215.668 496.041 215.783 495.552 216.014C495.072 216.236 494.633 216.543 494.233 216.934C493.842 217.325 493.491 217.778 493.18 218.293C492.878 218.808 492.62 219.355 492.407 219.932C492.203 220.51 492.043 221.105 491.927 221.718C491.821 222.331 491.767 222.922 491.767 223.49C491.767 224.681 491.994 225.609 492.447 226.275C492.9 226.942 493.562 227.275 494.433 227.275ZM522.767 210.364H513.692L512.746 218.04H520.302L520.155 219.106H512.612L511.64 227.035H520.755L520.608 228.128H510.174L512.492 209.271H522.913L522.767 210.364ZM532.933 228.128C532.765 228.128 532.645 228.088 532.574 228.008C532.511 227.928 532.48 227.83 532.48 227.715L532.92 223.49C532.574 224.21 532.183 224.867 531.747 225.462C531.321 226.049 530.868 226.555 530.388 226.982C529.908 227.399 529.406 227.723 528.882 227.954C528.358 228.185 527.825 228.301 527.283 228.301C526.706 228.301 526.199 228.19 525.764 227.968C525.329 227.746 524.964 227.43 524.671 227.022C524.378 226.613 524.156 226.12 524.005 225.542C523.854 224.965 523.778 224.316 523.778 223.597C523.778 222.922 523.849 222.233 523.991 221.531C524.134 220.82 524.333 220.136 524.591 219.479C524.858 218.813 525.177 218.191 525.551 217.613C525.933 217.027 526.364 216.516 526.843 216.081C527.323 215.645 527.847 215.303 528.416 215.055C528.984 214.797 529.593 214.668 530.241 214.668C530.961 214.668 531.623 214.828 532.227 215.148C532.831 215.459 533.329 215.93 533.72 216.561L534.692 208.738H535.918L533.546 228.128H532.933ZM527.696 227.275C528.203 227.275 528.709 227.137 529.215 226.862C529.722 226.577 530.21 226.178 530.681 225.662C531.161 225.147 531.605 224.53 532.014 223.81C532.431 223.081 532.8 222.277 533.12 221.398L533.586 217.56C533.204 216.867 532.729 216.378 532.16 216.094C531.592 215.81 531.001 215.668 530.388 215.668C529.828 215.668 529.304 215.783 528.816 216.014C528.336 216.236 527.896 216.543 527.496 216.934C527.105 217.325 526.754 217.778 526.443 218.293C526.141 218.808 525.884 219.355 525.671 219.932C525.466 220.51 525.306 221.105 525.191 221.718C525.084 222.331 525.031 222.922 525.031 223.49C525.031 224.681 525.257 225.609 525.711 226.275C526.164 226.942 526.825 227.275 527.696 227.275ZM540.389 214.868L539.39 223.304C539.336 223.721 539.31 224.108 539.31 224.463C539.31 225.369 539.479 226.062 539.816 226.542C540.163 227.013 540.705 227.248 541.442 227.248C541.931 227.248 542.424 227.124 542.921 226.875C543.419 226.626 543.903 226.271 544.374 225.809C544.845 225.338 545.289 224.778 545.706 224.13C546.124 223.472 546.493 222.735 546.812 221.918L547.665 214.868H548.918L547.319 228.128H546.732C546.564 228.128 546.439 228.083 546.359 227.994C546.288 227.906 546.253 227.786 546.253 227.635L546.652 223.863C546.288 224.565 545.884 225.191 545.44 225.742C545.004 226.293 544.542 226.76 544.054 227.142C543.574 227.515 543.077 227.803 542.561 228.008C542.046 228.203 541.531 228.301 541.015 228.301C540.029 228.301 539.287 227.977 538.79 227.328C538.301 226.671 538.057 225.738 538.057 224.53C538.057 224.45 538.057 224.365 538.057 224.276C538.066 224.179 538.079 224.019 538.097 223.797C538.124 223.566 538.159 223.25 538.204 222.851C538.248 222.451 538.31 221.909 538.39 221.225C538.47 220.532 538.568 219.67 538.683 218.639C538.808 217.609 538.959 216.352 539.136 214.868H540.389ZM560.771 225.702C560.3 226.226 559.852 226.657 559.425 226.995C559.008 227.333 558.595 227.599 558.186 227.795C557.786 227.99 557.378 228.123 556.96 228.194C556.542 228.265 556.098 228.301 555.627 228.301C554.863 228.301 554.197 228.172 553.628 227.914C553.069 227.648 552.602 227.279 552.229 226.808C551.856 226.338 551.576 225.778 551.39 225.129C551.203 224.481 551.11 223.774 551.11 223.01C551.11 222.309 551.181 221.616 551.323 220.932C551.474 220.239 551.687 219.581 551.963 218.959C552.238 218.337 552.571 217.764 552.962 217.24C553.353 216.716 553.793 216.263 554.281 215.881C554.77 215.499 555.299 215.201 555.867 214.988C556.445 214.766 557.058 214.655 557.706 214.655C558.142 214.655 558.533 214.699 558.879 214.788C559.234 214.868 559.559 214.988 559.852 215.148C560.145 215.299 560.412 215.486 560.651 215.708C560.891 215.93 561.113 216.179 561.318 216.454L560.945 216.894C560.865 216.991 560.771 217.04 560.665 217.04C560.576 217.04 560.465 216.969 560.332 216.827C560.207 216.685 560.034 216.534 559.812 216.374C559.599 216.205 559.319 216.05 558.972 215.908C558.626 215.765 558.191 215.694 557.666 215.694C556.92 215.694 556.223 215.894 555.574 216.294C554.934 216.694 554.375 217.231 553.895 217.906C553.424 218.582 553.051 219.363 552.776 220.252C552.509 221.131 552.376 222.051 552.376 223.01C552.376 223.623 552.442 224.192 552.576 224.716C552.718 225.24 552.931 225.693 553.215 226.075C553.509 226.457 553.873 226.755 554.308 226.968C554.743 227.182 555.259 227.288 555.854 227.288C556.325 227.288 556.747 227.239 557.12 227.142C557.493 227.035 557.822 226.906 558.106 226.755C558.399 226.604 558.652 226.44 558.866 226.262C559.088 226.075 559.283 225.907 559.452 225.756C559.621 225.605 559.763 225.48 559.878 225.382C560.003 225.276 560.114 225.223 560.212 225.223C560.309 225.223 560.403 225.267 560.491 225.356L560.771 225.702ZM571.836 228.128H571.223C571.055 228.128 570.935 228.088 570.864 228.008C570.801 227.928 570.77 227.83 570.77 227.715L571.21 223.543C570.873 224.254 570.499 224.903 570.091 225.489C569.691 226.067 569.26 226.564 568.798 226.982C568.345 227.399 567.865 227.723 567.359 227.954C566.852 228.185 566.328 228.301 565.786 228.301C565.227 228.301 564.738 228.194 564.32 227.981C563.903 227.759 563.552 227.448 563.268 227.048C562.992 226.648 562.784 226.164 562.641 225.596C562.499 225.027 562.428 224.387 562.428 223.677C562.428 222.904 562.526 222.149 562.721 221.411C562.917 220.665 563.192 219.959 563.548 219.292C563.912 218.626 564.343 218.013 564.84 217.453C565.338 216.894 565.884 216.41 566.479 216.001C567.083 215.592 567.728 215.272 568.412 215.041C569.096 214.81 569.802 214.695 570.531 214.695C571.064 214.695 571.561 214.744 572.023 214.841C572.485 214.93 572.943 215.09 573.396 215.321L571.836 228.128ZM566.199 227.248C566.706 227.248 567.203 227.106 567.692 226.822C568.19 226.537 568.66 226.138 569.105 225.622C569.549 225.098 569.966 224.472 570.357 223.743C570.757 223.006 571.112 222.193 571.423 221.305L572.09 215.908C571.566 215.73 570.997 215.641 570.384 215.641C569.789 215.641 569.211 215.743 568.652 215.948C568.092 216.143 567.563 216.418 567.066 216.774C566.577 217.129 566.124 217.551 565.706 218.04C565.298 218.528 564.942 219.066 564.64 219.652C564.338 220.23 564.103 220.843 563.934 221.491C563.774 222.14 563.694 222.802 563.694 223.477C563.694 224.667 563.894 225.596 564.294 226.262C564.703 226.919 565.338 227.248 566.199 227.248ZM577.027 225.902C577.027 225.849 577.027 225.782 577.027 225.702C577.035 225.622 577.044 225.502 577.053 225.343C577.071 225.183 577.093 224.978 577.12 224.73C577.155 224.472 577.195 224.148 577.24 223.757L578.146 216.227H576.4C576.223 216.227 576.134 216.143 576.134 215.974L576.2 215.428L578.293 215.268L579.172 210.524C579.19 210.444 579.23 210.373 579.292 210.311C579.354 210.248 579.43 210.217 579.519 210.217H580.132L579.505 215.281H583.343L583.237 216.227H579.399L578.479 223.717C578.435 224.081 578.399 224.379 578.373 224.61C578.346 224.841 578.324 225.032 578.306 225.183C578.288 225.325 578.275 225.431 578.266 225.502C578.266 225.573 578.266 225.627 578.266 225.662C578.266 226.24 578.399 226.657 578.666 226.915C578.941 227.173 579.292 227.301 579.718 227.301C580.012 227.301 580.269 227.257 580.491 227.168C580.722 227.07 580.922 226.968 581.091 226.862C581.26 226.746 581.398 226.644 581.504 226.555C581.611 226.457 581.691 226.409 581.744 226.409C581.797 226.409 581.837 226.422 581.864 226.449C581.891 226.466 581.917 226.497 581.944 226.542L582.184 227.102C581.828 227.475 581.398 227.777 580.891 228.008C580.385 228.23 579.878 228.341 579.372 228.341C578.644 228.341 578.07 228.141 577.653 227.741C577.244 227.341 577.035 226.728 577.027 225.902ZM587.917 214.868L586.304 228.128H585.065L586.677 214.868H587.917ZM588.89 210.297C588.89 210.457 588.859 210.608 588.796 210.75C588.734 210.884 588.65 211.004 588.543 211.11C588.437 211.217 588.312 211.301 588.17 211.363C588.037 211.426 587.899 211.457 587.757 211.457C587.606 211.457 587.464 211.426 587.33 211.363C587.197 211.301 587.077 211.217 586.971 211.11C586.873 211.004 586.793 210.884 586.731 210.75C586.669 210.608 586.638 210.457 586.638 210.297C586.638 210.137 586.669 209.986 586.731 209.844C586.793 209.702 586.873 209.578 586.971 209.471C587.077 209.356 587.197 209.267 587.33 209.204C587.464 209.142 587.606 209.111 587.757 209.111C587.899 209.111 588.037 209.142 588.17 209.204C588.312 209.267 588.437 209.351 588.543 209.458C588.65 209.564 588.734 209.693 588.796 209.844C588.859 209.986 588.89 210.137 588.89 210.297ZM595.314 227.301C596.087 227.301 596.789 227.102 597.419 226.702C598.059 226.293 598.605 225.756 599.059 225.089C599.512 224.414 599.858 223.646 600.098 222.784C600.347 221.913 600.471 221.02 600.471 220.105C600.471 218.684 600.156 217.587 599.525 216.814C598.894 216.041 598.019 215.654 596.9 215.654C596.384 215.654 595.9 215.748 595.447 215.934C594.994 216.112 594.577 216.365 594.195 216.694C593.812 217.023 593.466 217.413 593.155 217.867C592.853 218.311 592.595 218.799 592.382 219.332C592.178 219.865 592.018 220.43 591.902 221.025C591.796 221.62 591.742 222.229 591.742 222.851C591.742 224.263 592.053 225.36 592.675 226.142C593.306 226.915 594.186 227.301 595.314 227.301ZM595.207 228.301C594.497 228.301 593.848 228.177 593.262 227.928C592.684 227.679 592.187 227.319 591.769 226.848C591.36 226.378 591.041 225.809 590.81 225.143C590.588 224.467 590.476 223.703 590.476 222.851C590.476 221.776 590.636 220.745 590.956 219.759C591.276 218.764 591.725 217.889 592.302 217.134C592.889 216.378 593.581 215.779 594.381 215.335C595.181 214.881 596.06 214.655 597.02 214.655C597.73 214.655 598.374 214.784 598.952 215.041C599.538 215.29 600.036 215.65 600.444 216.121C600.862 216.583 601.182 217.151 601.404 217.827C601.635 218.502 601.75 219.257 601.75 220.092C601.75 221.167 601.586 222.198 601.257 223.184C600.938 224.17 600.489 225.045 599.911 225.809C599.334 226.564 598.645 227.168 597.846 227.621C597.046 228.074 596.167 228.301 595.207 228.301ZM603.953 228.128L605.552 214.828H606.125C606.427 214.828 606.578 214.988 606.578 215.308L606.192 219.146C606.556 218.444 606.956 217.818 607.391 217.267C607.835 216.707 608.302 216.236 608.79 215.854C609.279 215.463 609.781 215.17 610.296 214.975C610.812 214.77 611.331 214.668 611.855 214.668C612.842 214.668 613.583 214.992 614.081 215.641C614.578 216.29 614.827 217.218 614.827 218.426C614.827 218.506 614.823 218.599 614.814 218.706C614.814 218.804 614.801 218.964 614.774 219.186C614.756 219.408 614.725 219.723 614.681 220.132C614.636 220.532 614.574 221.078 614.494 221.771C614.414 222.455 614.312 223.317 614.188 224.356C614.072 225.387 613.925 226.644 613.748 228.128H612.495L613.495 219.652C613.548 219.244 613.575 218.857 613.575 218.493C613.575 217.596 613.401 216.911 613.055 216.441C612.717 215.97 612.18 215.734 611.442 215.734C610.945 215.734 610.443 215.863 609.936 216.121C609.43 216.37 608.937 216.729 608.457 217.2C607.986 217.662 607.542 218.226 607.125 218.893C606.707 219.55 606.338 220.292 606.019 221.118L605.206 228.128H603.953ZM631.7 228.128H631.087C630.918 228.128 630.799 228.088 630.727 228.008C630.665 227.928 630.634 227.83 630.634 227.715L631.074 223.543C630.736 224.254 630.363 224.903 629.955 225.489C629.555 226.067 629.124 226.564 628.662 226.982C628.209 227.399 627.729 227.723 627.223 227.954C626.716 228.185 626.192 228.301 625.65 228.301C625.09 228.301 624.602 228.194 624.184 227.981C623.767 227.759 623.416 227.448 623.132 227.048C622.856 226.648 622.647 226.164 622.505 225.596C622.363 225.027 622.292 224.387 622.292 223.677C622.292 222.904 622.39 222.149 622.585 221.411C622.781 220.665 623.056 219.959 623.411 219.292C623.776 218.626 624.207 218.013 624.704 217.453C625.202 216.894 625.748 216.41 626.343 216.001C626.947 215.592 627.591 215.272 628.275 215.041C628.96 214.81 629.666 214.695 630.394 214.695C630.927 214.695 631.425 214.744 631.887 214.841C632.349 214.93 632.806 215.09 633.259 215.321L631.7 228.128ZM626.063 227.248C626.57 227.248 627.067 227.106 627.556 226.822C628.053 226.537 628.524 226.138 628.968 225.622C629.413 225.098 629.83 224.472 630.221 223.743C630.621 223.006 630.976 222.193 631.287 221.305L631.953 215.908C631.429 215.73 630.861 215.641 630.248 215.641C629.652 215.641 629.075 215.743 628.515 215.948C627.956 216.143 627.427 216.418 626.929 216.774C626.441 217.129 625.988 217.551 625.57 218.04C625.162 218.528 624.806 219.066 624.504 219.652C624.202 220.23 623.967 220.843 623.798 221.491C623.638 222.14 623.558 222.802 623.558 223.477C623.558 224.667 623.758 225.596 624.158 226.262C624.566 226.919 625.202 227.248 626.063 227.248ZM644.033 216.494C643.962 216.618 643.864 216.68 643.74 216.68C643.651 216.68 643.54 216.627 643.407 216.521C643.283 216.405 643.109 216.281 642.887 216.147C642.665 216.005 642.39 215.881 642.061 215.774C641.732 215.659 641.324 215.601 640.835 215.601C640.382 215.601 639.951 215.677 639.542 215.828C639.143 215.979 638.792 216.183 638.49 216.441C638.196 216.689 637.961 216.983 637.783 217.32C637.614 217.649 637.53 218 637.53 218.373C637.53 218.737 637.614 219.044 637.783 219.292C637.952 219.541 638.174 219.759 638.45 219.945C638.734 220.123 639.049 220.279 639.396 220.412C639.751 220.545 640.115 220.678 640.488 220.812C640.862 220.945 641.221 221.096 641.568 221.265C641.923 221.425 642.239 221.62 642.514 221.851C642.798 222.082 643.025 222.366 643.194 222.704C643.362 223.033 643.447 223.432 643.447 223.903C643.447 224.472 643.331 225.023 643.1 225.556C642.878 226.089 642.558 226.564 642.141 226.982C641.723 227.39 641.217 227.719 640.622 227.968C640.035 228.217 639.378 228.341 638.649 228.341C637.788 228.341 637.068 228.194 636.491 227.901C635.913 227.599 635.416 227.208 634.998 226.728L635.305 226.275C635.358 226.204 635.411 226.151 635.465 226.115C635.518 226.08 635.584 226.062 635.664 226.062C635.753 226.062 635.864 226.133 635.998 226.275C636.131 226.417 636.313 226.577 636.544 226.755C636.784 226.924 637.086 227.079 637.45 227.222C637.814 227.364 638.272 227.435 638.823 227.435C639.347 227.435 639.822 227.35 640.249 227.182C640.684 227.004 641.053 226.764 641.355 226.462C641.666 226.16 641.905 225.813 642.074 225.422C642.243 225.023 642.327 224.601 642.327 224.156C642.327 223.766 642.243 223.437 642.074 223.17C641.905 222.904 641.683 222.677 641.408 222.491C641.133 222.295 640.817 222.131 640.462 221.998C640.106 221.864 639.742 221.736 639.369 221.611C639.005 221.478 638.645 221.336 638.29 221.185C637.934 221.025 637.619 220.834 637.343 220.612C637.068 220.39 636.846 220.119 636.677 219.799C636.508 219.479 636.424 219.088 636.424 218.626C636.424 218.111 636.535 217.618 636.757 217.147C636.979 216.667 637.29 216.245 637.69 215.881C638.09 215.508 638.565 215.215 639.116 215.001C639.667 214.779 640.271 214.668 640.928 214.668C641.675 214.668 642.323 214.784 642.874 215.015C643.425 215.246 643.913 215.592 644.34 216.054L644.033 216.494ZM654.35 220.518L653.418 228.128H652.098L654.404 209.271H658.935C660.783 209.271 662.168 209.689 663.092 210.524C664.016 211.35 664.478 212.514 664.478 214.015C664.478 214.975 664.314 215.854 663.985 216.654C663.657 217.445 663.19 218.129 662.586 218.706C661.982 219.275 661.253 219.719 660.401 220.039C659.548 220.359 658.597 220.518 657.549 220.518H654.35ZM655.603 210.324L654.484 219.452H657.682C658.517 219.452 659.268 219.319 659.934 219.053C660.609 218.786 661.182 218.417 661.653 217.946C662.133 217.476 662.502 216.916 662.759 216.267C663.017 215.619 663.146 214.913 663.146 214.149C663.146 212.94 662.781 212.003 662.053 211.337C661.333 210.661 660.25 210.324 658.801 210.324H655.603ZM665.821 228.128L667.42 214.828H667.993C668.304 214.828 668.46 214.988 668.46 215.308L668.073 219.252C668.677 217.804 669.366 216.689 670.139 215.908C670.92 215.117 671.751 214.722 672.631 214.722C672.995 214.722 673.368 214.797 673.75 214.948L673.524 216.134C673.115 215.983 672.733 215.908 672.377 215.908C671.427 215.908 670.57 216.378 669.805 217.32C669.05 218.253 668.402 219.603 667.86 221.371L667.06 228.128H665.821ZM678.785 227.301C679.558 227.301 680.26 227.102 680.89 226.702C681.53 226.293 682.076 225.756 682.53 225.089C682.983 224.414 683.329 223.646 683.569 222.784C683.818 221.913 683.942 221.02 683.942 220.105C683.942 218.684 683.627 217.587 682.996 216.814C682.365 216.041 681.49 215.654 680.371 215.654C679.855 215.654 679.371 215.748 678.918 215.934C678.465 216.112 678.047 216.365 677.665 216.694C677.283 217.023 676.937 217.413 676.626 217.867C676.324 218.311 676.066 218.799 675.853 219.332C675.649 219.865 675.489 220.43 675.373 221.025C675.267 221.62 675.213 222.229 675.213 222.851C675.213 224.263 675.524 225.36 676.146 226.142C676.777 226.915 677.657 227.301 678.785 227.301ZM678.678 228.301C677.968 228.301 677.319 228.177 676.733 227.928C676.155 227.679 675.658 227.319 675.24 226.848C674.831 226.378 674.512 225.809 674.281 225.143C674.058 224.467 673.947 223.703 673.947 222.851C673.947 221.776 674.107 220.745 674.427 219.759C674.747 218.764 675.196 217.889 675.773 217.134C676.359 216.378 677.052 215.779 677.852 215.335C678.652 214.881 679.531 214.655 680.491 214.655C681.201 214.655 681.845 214.784 682.423 215.041C683.009 215.29 683.507 215.65 683.915 216.121C684.333 216.583 684.653 217.151 684.875 217.827C685.106 218.502 685.221 219.257 685.221 220.092C685.221 221.167 685.057 222.198 684.728 223.184C684.409 224.17 683.96 225.045 683.382 225.809C682.805 226.564 682.116 227.168 681.317 227.621C680.517 228.074 679.638 228.301 678.678 228.301ZM696.792 225.702C696.321 226.226 695.873 226.657 695.446 226.995C695.029 227.333 694.616 227.599 694.207 227.795C693.807 227.99 693.399 228.123 692.981 228.194C692.563 228.265 692.119 228.301 691.648 228.301C690.884 228.301 690.218 228.172 689.649 227.914C689.09 227.648 688.623 227.279 688.25 226.808C687.877 226.338 687.597 225.778 687.411 225.129C687.224 224.481 687.131 223.774 687.131 223.01C687.131 222.309 687.202 221.616 687.344 220.932C687.495 220.239 687.708 219.581 687.984 218.959C688.259 218.337 688.592 217.764 688.983 217.24C689.374 216.716 689.814 216.263 690.302 215.881C690.791 215.499 691.32 215.201 691.888 214.988C692.466 214.766 693.079 214.655 693.727 214.655C694.163 214.655 694.553 214.699 694.9 214.788C695.255 214.868 695.58 214.988 695.873 215.148C696.166 215.299 696.432 215.486 696.672 215.708C696.912 215.93 697.134 216.179 697.339 216.454L696.966 216.894C696.886 216.991 696.792 217.04 696.686 217.04C696.597 217.04 696.486 216.969 696.353 216.827C696.228 216.685 696.055 216.534 695.833 216.374C695.62 216.205 695.34 216.05 694.993 215.908C694.647 215.765 694.211 215.694 693.687 215.694C692.941 215.694 692.244 215.894 691.595 216.294C690.955 216.694 690.396 217.231 689.916 217.906C689.445 218.582 689.072 219.363 688.797 220.252C688.53 221.131 688.397 222.051 688.397 223.01C688.397 223.623 688.463 224.192 688.597 224.716C688.739 225.24 688.952 225.693 689.236 226.075C689.529 226.457 689.894 226.755 690.329 226.968C690.764 227.182 691.28 227.288 691.875 227.288C692.346 227.288 692.768 227.239 693.141 227.142C693.514 227.035 693.843 226.906 694.127 226.755C694.42 226.604 694.673 226.44 694.887 226.262C695.109 226.075 695.304 225.907 695.473 225.756C695.642 225.605 695.784 225.48 695.899 225.382C696.024 225.276 696.135 225.223 696.233 225.223C696.33 225.223 696.424 225.267 696.512 225.356L696.792 225.702ZM708.817 217.4C708.817 217.764 708.768 218.111 708.67 218.44C708.573 218.768 708.399 219.079 708.151 219.372C707.902 219.666 707.564 219.945 707.138 220.212C706.711 220.47 706.165 220.709 705.499 220.932C704.832 221.145 704.037 221.34 703.113 221.518C702.189 221.687 701.105 221.838 699.862 221.971C699.844 222.158 699.831 222.344 699.822 222.531C699.813 222.708 699.808 222.886 699.808 223.064C699.808 224.387 700.106 225.422 700.701 226.169C701.305 226.915 702.212 227.288 703.42 227.288C703.891 227.288 704.313 227.239 704.686 227.142C705.068 227.035 705.405 226.902 705.699 226.742C706.001 226.582 706.263 226.413 706.485 226.235C706.716 226.058 706.92 225.889 707.098 225.729C707.275 225.569 707.427 225.44 707.551 225.343C707.684 225.236 707.804 225.183 707.911 225.183C708.017 225.183 708.111 225.227 708.191 225.316L708.484 225.662C708.048 226.124 707.622 226.524 707.204 226.862C706.796 227.19 706.378 227.461 705.952 227.675C705.534 227.888 705.099 228.043 704.646 228.141C704.193 228.248 703.709 228.301 703.193 228.301C702.456 228.301 701.798 228.181 701.221 227.941C700.652 227.692 700.173 227.346 699.782 226.902C699.391 226.449 699.093 225.902 698.889 225.263C698.685 224.614 698.582 223.89 698.582 223.09C698.582 222.424 698.649 221.753 698.782 221.078C698.916 220.403 699.111 219.754 699.369 219.133C699.635 218.511 699.959 217.929 700.341 217.387C700.732 216.845 701.177 216.374 701.674 215.974C702.172 215.574 702.722 215.259 703.326 215.028C703.931 214.797 704.584 214.682 705.285 214.682C705.934 214.682 706.48 214.775 706.925 214.961C707.378 215.139 707.742 215.366 708.017 215.641C708.302 215.908 708.506 216.201 708.63 216.521C708.755 216.832 708.817 217.125 708.817 217.4ZM705.219 215.614C704.508 215.614 703.864 215.765 703.287 216.067C702.718 216.37 702.212 216.774 701.767 217.28C701.332 217.778 700.963 218.36 700.661 219.026C700.368 219.683 700.15 220.372 700.008 221.091C701.137 220.967 702.109 220.825 702.927 220.665C703.744 220.496 704.437 220.323 705.006 220.145C705.574 219.959 706.032 219.759 706.378 219.546C706.734 219.332 707.009 219.115 707.204 218.893C707.4 218.662 707.529 218.426 707.591 218.186C707.662 217.946 707.697 217.698 707.697 217.44C707.697 217.254 707.653 217.054 707.564 216.84C707.484 216.618 707.347 216.418 707.151 216.241C706.956 216.063 706.698 215.916 706.378 215.801C706.067 215.677 705.681 215.614 705.219 215.614ZM719.045 216.494C718.974 216.618 718.876 216.68 718.752 216.68C718.663 216.68 718.552 216.627 718.419 216.521C718.294 216.405 718.121 216.281 717.899 216.147C717.677 216.005 717.402 215.881 717.073 215.774C716.744 215.659 716.336 215.601 715.847 215.601C715.394 215.601 714.963 215.677 714.554 215.828C714.154 215.979 713.804 216.183 713.501 216.441C713.208 216.689 712.973 216.983 712.795 217.32C712.626 217.649 712.542 218 712.542 218.373C712.542 218.737 712.626 219.044 712.795 219.292C712.964 219.541 713.186 219.759 713.462 219.945C713.746 220.123 714.061 220.279 714.408 220.412C714.763 220.545 715.127 220.678 715.5 220.812C715.874 220.945 716.233 221.096 716.58 221.265C716.935 221.425 717.251 221.62 717.526 221.851C717.81 222.082 718.037 222.366 718.206 222.704C718.374 223.033 718.459 223.432 718.459 223.903C718.459 224.472 718.343 225.023 718.112 225.556C717.89 226.089 717.57 226.564 717.153 226.982C716.735 227.39 716.229 227.719 715.634 227.968C715.047 228.217 714.39 228.341 713.661 228.341C712.8 228.341 712.08 228.194 711.503 227.901C710.925 227.599 710.428 227.208 710.01 226.728L710.317 226.275C710.37 226.204 710.423 226.151 710.476 226.115C710.53 226.08 710.596 226.062 710.676 226.062C710.765 226.062 710.876 226.133 711.009 226.275C711.143 226.417 711.325 226.577 711.556 226.755C711.796 226.924 712.098 227.079 712.462 227.222C712.826 227.364 713.284 227.435 713.835 227.435C714.359 227.435 714.834 227.35 715.261 227.182C715.696 227.004 716.065 226.764 716.367 226.462C716.678 226.16 716.917 225.813 717.086 225.422C717.255 225.023 717.339 224.601 717.339 224.156C717.339 223.766 717.255 223.437 717.086 223.17C716.917 222.904 716.695 222.677 716.42 222.491C716.145 222.295 715.829 222.131 715.474 221.998C715.118 221.864 714.754 221.736 714.381 221.611C714.017 221.478 713.657 221.336 713.302 221.185C712.946 221.025 712.631 220.834 712.355 220.612C712.08 220.39 711.858 220.119 711.689 219.799C711.52 219.479 711.436 219.088 711.436 218.626C711.436 218.111 711.547 217.618 711.769 217.147C711.991 216.667 712.302 216.245 712.702 215.881C713.102 215.508 713.577 215.215 714.128 215.001C714.679 214.779 715.283 214.668 715.94 214.668C716.686 214.668 717.335 214.784 717.886 215.015C718.437 215.246 718.925 215.592 719.352 216.054L719.045 216.494ZM729.326 216.494C729.255 216.618 729.157 216.68 729.033 216.68C728.944 216.68 728.833 216.627 728.7 216.521C728.575 216.405 728.402 216.281 728.18 216.147C727.958 216.005 727.683 215.881 727.354 215.774C727.025 215.659 726.616 215.601 726.128 215.601C725.675 215.601 725.244 215.677 724.835 215.828C724.435 215.979 724.084 216.183 723.782 216.441C723.489 216.689 723.254 216.983 723.076 217.32C722.907 217.649 722.823 218 722.823 218.373C722.823 218.737 722.907 219.044 723.076 219.292C723.245 219.541 723.467 219.759 723.742 219.945C724.027 220.123 724.342 220.279 724.689 220.412C725.044 220.545 725.408 220.678 725.781 220.812C726.154 220.945 726.514 221.096 726.861 221.265C727.216 221.425 727.532 221.62 727.807 221.851C728.091 222.082 728.318 222.366 728.487 222.704C728.655 223.033 728.74 223.432 728.74 223.903C728.74 224.472 728.624 225.023 728.393 225.556C728.171 226.089 727.851 226.564 727.434 226.982C727.016 227.39 726.51 227.719 725.915 227.968C725.328 228.217 724.671 228.341 723.942 228.341C723.081 228.341 722.361 228.194 721.783 227.901C721.206 227.599 720.709 227.208 720.291 226.728L720.597 226.275C720.651 226.204 720.704 226.151 720.757 226.115C720.811 226.08 720.877 226.062 720.957 226.062C721.046 226.062 721.157 226.133 721.29 226.275C721.424 226.417 721.606 226.577 721.837 226.755C722.077 226.924 722.379 227.079 722.743 227.222C723.107 227.364 723.565 227.435 724.116 227.435C724.64 227.435 725.115 227.35 725.541 227.182C725.977 227.004 726.345 226.764 726.648 226.462C726.959 226.16 727.198 225.813 727.367 225.422C727.536 225.023 727.62 224.601 727.62 224.156C727.62 223.766 727.536 223.437 727.367 223.17C727.198 222.904 726.976 222.677 726.701 222.491C726.425 222.295 726.11 222.131 725.755 221.998C725.399 221.864 725.035 221.736 724.662 221.611C724.298 221.478 723.938 221.336 723.583 221.185C723.227 221.025 722.912 220.834 722.636 220.612C722.361 220.39 722.139 220.119 721.97 219.799C721.801 219.479 721.717 219.088 721.717 218.626C721.717 218.111 721.828 217.618 722.05 217.147C722.272 216.667 722.583 216.245 722.983 215.881C723.383 215.508 723.858 215.215 724.409 215.001C724.96 214.779 725.564 214.668 726.221 214.668C726.967 214.668 727.616 214.784 728.167 215.015C728.718 215.246 729.206 215.592 729.633 216.054L729.326 216.494ZM734.583 214.868L732.971 228.128H731.731L733.344 214.868H734.583ZM735.556 210.297C735.556 210.457 735.525 210.608 735.463 210.75C735.4 210.884 735.316 211.004 735.209 211.11C735.103 211.217 734.978 211.301 734.836 211.363C734.703 211.426 734.565 211.457 734.423 211.457C734.272 211.457 734.13 211.426 733.997 211.363C733.863 211.301 733.744 211.217 733.637 211.11C733.539 211.004 733.459 210.884 733.397 210.75C733.335 210.608 733.304 210.457 733.304 210.297C733.304 210.137 733.335 209.986 733.397 209.844C733.459 209.702 733.539 209.578 733.637 209.471C733.744 209.356 733.863 209.267 733.997 209.204C734.13 209.142 734.272 209.111 734.423 209.111C734.565 209.111 734.703 209.142 734.836 209.204C734.978 209.267 735.103 209.351 735.209 209.458C735.316 209.564 735.4 209.693 735.463 209.844C735.525 209.986 735.556 210.137 735.556 210.297ZM737.449 228.128L739.048 214.828H739.621C739.924 214.828 740.075 214.988 740.075 215.308L739.688 219.146C740.052 218.444 740.452 217.818 740.887 217.267C741.332 216.707 741.798 216.236 742.287 215.854C742.775 215.463 743.277 215.17 743.793 214.975C744.308 214.77 744.828 214.668 745.352 214.668C746.338 214.668 747.08 214.992 747.577 215.641C748.075 216.29 748.323 217.218 748.323 218.426C748.323 218.506 748.319 218.599 748.31 218.706C748.31 218.804 748.297 218.964 748.27 219.186C748.252 219.408 748.221 219.723 748.177 220.132C748.132 220.532 748.07 221.078 747.99 221.771C747.91 222.455 747.808 223.317 747.684 224.356C747.568 225.387 747.422 226.644 747.244 228.128H745.991L746.991 219.652C747.044 219.244 747.071 218.857 747.071 218.493C747.071 217.596 746.898 216.911 746.551 216.441C746.213 215.97 745.676 215.734 744.939 215.734C744.441 215.734 743.939 215.863 743.433 216.121C742.926 216.37 742.433 216.729 741.954 217.2C741.483 217.662 741.038 218.226 740.621 218.893C740.203 219.55 739.835 220.292 739.515 221.118L738.702 228.128H737.449ZM759.99 218.32C759.981 218.808 759.914 219.252 759.79 219.652C759.674 220.052 759.528 220.421 759.35 220.758C759.172 221.087 758.977 221.398 758.764 221.691C758.559 221.975 758.368 222.255 758.191 222.531C758.013 222.806 757.866 223.086 757.751 223.37C757.635 223.655 757.578 223.957 757.578 224.276C757.578 224.543 757.631 224.792 757.738 225.023C757.844 225.245 757.973 225.462 758.124 225.676C758.284 225.889 758.457 226.107 758.644 226.329C758.83 226.542 758.999 226.768 759.15 227.008C759.31 227.248 759.443 227.51 759.55 227.795C759.657 228.079 759.71 228.394 759.71 228.741C759.71 229.3 759.568 229.838 759.283 230.353C758.999 230.877 758.599 231.339 758.084 231.739C757.569 232.139 756.947 232.459 756.218 232.699C755.499 232.938 754.695 233.058 753.806 233.058C753.105 233.058 752.46 232.987 751.874 232.845C751.297 232.703 750.795 232.494 750.368 232.219C749.951 231.952 749.626 231.624 749.395 231.233C749.164 230.842 749.049 230.398 749.049 229.9C749.049 229.26 749.218 228.692 749.555 228.194C749.884 227.706 750.333 227.293 750.901 226.955C751.479 226.617 752.145 226.36 752.9 226.182C753.664 226.004 754.482 225.916 755.352 225.916C755.654 225.916 755.956 225.929 756.258 225.956C756.56 225.973 756.867 226.004 757.178 226.049C757.027 225.844 756.898 225.627 756.791 225.396C756.694 225.165 756.645 224.907 756.645 224.623C756.645 224.312 756.698 223.997 756.805 223.677C756.911 223.357 757.116 222.97 757.418 222.517C757.054 222.766 756.667 222.957 756.258 223.09C755.859 223.224 755.419 223.29 754.939 223.29C754.433 223.29 753.962 223.21 753.527 223.05C753.091 222.89 752.714 222.655 752.394 222.344C752.083 222.024 751.839 221.638 751.661 221.185C751.483 220.723 751.394 220.19 751.394 219.586C751.394 218.973 751.501 218.373 751.714 217.787C751.936 217.191 752.252 216.663 752.66 216.201C753.078 215.739 753.589 215.37 754.193 215.095C754.797 214.81 755.485 214.668 756.258 214.668C756.711 214.668 757.138 214.726 757.538 214.841C757.937 214.948 758.293 215.112 758.604 215.335H762.069L762.015 215.761C762.006 215.85 761.971 215.93 761.909 216.001C761.855 216.063 761.767 216.103 761.642 216.121L759.483 216.294C759.643 216.569 759.768 216.876 759.856 217.214C759.945 217.551 759.99 217.92 759.99 218.32ZM758.55 228.821C758.55 228.385 758.479 228.012 758.337 227.701C758.195 227.39 758.022 227.106 757.818 226.848L757.831 226.888C757.396 226.817 756.982 226.768 756.592 226.742C756.201 226.715 755.823 226.702 755.459 226.702C754.579 226.702 753.815 226.786 753.167 226.955C752.518 227.115 751.976 227.337 751.541 227.621C751.114 227.897 750.79 228.221 750.568 228.594C750.355 228.967 750.248 229.358 750.248 229.767C750.248 230.149 750.333 230.486 750.501 230.78C750.679 231.082 750.928 231.33 751.248 231.526C751.568 231.73 751.954 231.886 752.407 231.992C752.86 232.099 753.362 232.152 753.913 232.152C754.606 232.152 755.237 232.059 755.805 231.872C756.374 231.686 756.858 231.437 757.258 231.126C757.667 230.815 757.982 230.46 758.204 230.06C758.426 229.66 758.542 229.247 758.55 228.821ZM755.232 222.464C755.801 222.464 756.307 222.344 756.751 222.104C757.205 221.864 757.587 221.553 757.897 221.171C758.208 220.781 758.444 220.341 758.604 219.852C758.764 219.355 758.844 218.857 758.844 218.36C758.844 217.436 758.599 216.743 758.111 216.281C757.622 215.81 756.965 215.574 756.138 215.574C755.57 215.574 755.063 215.69 754.619 215.921C754.175 216.143 753.797 216.441 753.487 216.814C753.184 217.187 752.953 217.618 752.794 218.106C752.634 218.586 752.554 219.079 752.554 219.586C752.554 220.527 752.794 221.242 753.273 221.731C753.753 222.22 754.406 222.464 755.232 222.464ZM767.393 232.819L769.579 214.828H770.152C770.463 214.828 770.618 214.988 770.618 215.308L770.192 219.479C770.538 218.759 770.925 218.106 771.351 217.52C771.787 216.925 772.244 216.418 772.724 216.001C773.213 215.574 773.719 215.246 774.243 215.015C774.767 214.784 775.3 214.668 775.842 214.668C776.42 214.668 776.926 214.779 777.361 215.001C777.797 215.223 778.161 215.539 778.454 215.948C778.747 216.347 778.969 216.836 779.121 217.413C779.272 217.991 779.347 218.635 779.347 219.346C779.347 220.03 779.276 220.727 779.134 221.438C778.992 222.14 778.787 222.824 778.521 223.49C778.263 224.148 777.943 224.769 777.561 225.356C777.188 225.942 776.762 226.453 776.282 226.888C775.802 227.324 775.274 227.67 774.696 227.928C774.128 228.177 773.524 228.301 772.884 228.301C772.164 228.301 771.498 228.141 770.885 227.821C770.281 227.501 769.788 227.03 769.406 226.409L768.619 232.819H767.393ZM775.429 215.694C774.923 215.694 774.412 215.836 773.897 216.121C773.39 216.396 772.902 216.792 772.431 217.307C771.96 217.822 771.516 218.444 771.098 219.172C770.681 219.892 770.312 220.696 769.992 221.585L769.526 225.396C769.917 226.098 770.396 226.591 770.965 226.875C771.533 227.159 772.124 227.301 772.737 227.301C773.297 227.301 773.817 227.19 774.296 226.968C774.785 226.737 775.225 226.426 775.616 226.035C776.016 225.645 776.366 225.191 776.668 224.676C776.979 224.152 777.237 223.601 777.441 223.024C777.655 222.446 777.815 221.855 777.921 221.251C778.037 220.638 778.094 220.043 778.094 219.466C778.094 218.275 777.868 217.351 777.415 216.694C776.962 216.027 776.3 215.694 775.429 215.694ZM790.391 228.128H789.778C789.61 228.128 789.49 228.088 789.419 228.008C789.356 227.928 789.325 227.83 789.325 227.715L789.765 223.543C789.427 224.254 789.054 224.903 788.646 225.489C788.246 226.067 787.815 226.564 787.353 226.982C786.9 227.399 786.42 227.723 785.914 227.954C785.407 228.185 784.883 228.301 784.341 228.301C783.782 228.301 783.293 228.194 782.875 227.981C782.458 227.759 782.107 227.448 781.823 227.048C781.547 226.648 781.338 226.164 781.196 225.596C781.054 225.027 780.983 224.387 780.983 223.677C780.983 222.904 781.081 222.149 781.276 221.411C781.472 220.665 781.747 219.959 782.102 219.292C782.467 218.626 782.898 218.013 783.395 217.453C783.893 216.894 784.439 216.41 785.034 216.001C785.638 215.592 786.282 215.272 786.967 215.041C787.651 214.81 788.357 214.695 789.085 214.695C789.618 214.695 790.116 214.744 790.578 214.841C791.04 214.93 791.497 215.09 791.951 215.321L790.391 228.128ZM784.754 227.248C785.261 227.248 785.758 227.106 786.247 226.822C786.744 226.537 787.215 226.138 787.66 225.622C788.104 225.098 788.521 224.472 788.912 223.743C789.312 223.006 789.667 222.193 789.978 221.305L790.645 215.908C790.12 215.73 789.552 215.641 788.939 215.641C788.344 215.641 787.766 215.743 787.206 215.948C786.647 216.143 786.118 216.418 785.621 216.774C785.132 217.129 784.679 217.551 784.261 218.04C783.853 218.528 783.497 219.066 783.195 219.652C782.893 220.23 782.658 220.843 782.489 221.491C782.329 222.14 782.249 222.802 782.249 223.477C782.249 224.667 782.449 225.596 782.849 226.262C783.257 226.919 783.893 227.248 784.754 227.248ZM794.502 228.128L796.101 214.828H796.674C796.985 214.828 797.141 214.988 797.141 215.308L796.754 219.252C797.358 217.804 798.047 216.689 798.82 215.908C799.602 215.117 800.432 214.722 801.312 214.722C801.676 214.722 802.049 214.797 802.431 214.948L802.205 216.134C801.796 215.983 801.414 215.908 801.059 215.908C800.108 215.908 799.251 216.378 798.487 217.32C797.731 218.253 797.083 219.603 796.541 221.371L795.741 228.128H794.502ZM804.535 225.902C804.535 225.849 804.535 225.782 804.535 225.702C804.544 225.622 804.553 225.502 804.562 225.343C804.579 225.183 804.602 224.978 804.628 224.73C804.664 224.472 804.704 224.148 804.748 223.757L805.654 216.227H803.909C803.731 216.227 803.642 216.143 803.642 215.974L803.709 215.428L805.801 215.268L806.681 210.524C806.698 210.444 806.738 210.373 806.8 210.311C806.863 210.248 806.938 210.217 807.027 210.217H807.64L807.014 215.281H810.852L810.745 216.227H806.907L805.988 223.717C805.943 224.081 805.908 224.379 805.881 224.61C805.854 224.841 805.832 225.032 805.814 225.183C805.797 225.325 805.783 225.431 805.774 225.502C805.774 225.573 805.774 225.627 805.774 225.662C805.774 226.24 805.908 226.657 806.174 226.915C806.45 227.173 806.8 227.301 807.227 227.301C807.52 227.301 807.778 227.257 808 227.168C808.231 227.07 808.431 226.968 808.6 226.862C808.768 226.746 808.906 226.644 809.013 226.555C809.119 226.457 809.199 226.409 809.253 226.409C809.306 226.409 809.346 226.422 809.372 226.449C809.399 226.466 809.426 226.497 809.452 226.542L809.692 227.102C809.337 227.475 808.906 227.777 808.4 228.008C807.893 228.23 807.387 228.341 806.88 228.341C806.152 228.341 805.579 228.141 805.161 227.741C804.753 227.341 804.544 226.728 804.535 225.902ZM812.227 228.128L813.826 214.828H814.399C814.701 214.828 814.852 214.988 814.852 215.308L814.466 219.146C814.83 218.444 815.23 217.818 815.665 217.267C816.109 216.707 816.576 216.236 817.064 215.854C817.553 215.463 818.055 215.17 818.57 214.975C819.086 214.77 819.605 214.668 820.129 214.668C821.116 214.668 821.857 214.992 822.355 215.641C822.852 216.29 823.101 217.218 823.101 218.426C823.101 218.506 823.097 218.599 823.088 218.706C823.088 218.804 823.074 218.964 823.048 219.186C823.03 219.408 822.999 219.723 822.955 220.132C822.91 220.532 822.848 221.078 822.768 221.771C822.688 222.455 822.586 223.317 822.461 224.356C822.346 225.387 822.199 226.644 822.022 228.128H820.769L821.769 219.652C821.822 219.244 821.848 218.857 821.848 218.493C821.848 217.596 821.675 216.911 821.329 216.441C820.991 215.97 820.454 215.734 819.716 215.734C819.219 215.734 818.717 215.863 818.21 216.121C817.704 216.37 817.211 216.729 816.731 217.2C816.26 217.662 815.816 218.226 815.399 218.893C814.981 219.55 814.612 220.292 814.293 221.118L813.48 228.128H812.227ZM835.78 217.4C835.78 217.764 835.731 218.111 835.634 218.44C835.536 218.768 835.363 219.079 835.114 219.372C834.865 219.666 834.528 219.945 834.101 220.212C833.675 220.47 833.128 220.709 832.462 220.932C831.796 221.145 831.001 221.34 830.077 221.518C829.153 221.687 828.069 221.838 826.825 221.971C826.807 222.158 826.794 222.344 826.785 222.531C826.776 222.708 826.772 222.886 826.772 223.064C826.772 224.387 827.069 225.422 827.665 226.169C828.269 226.915 829.175 227.288 830.383 227.288C830.854 227.288 831.276 227.239 831.649 227.142C832.031 227.035 832.369 226.902 832.662 226.742C832.964 226.582 833.226 226.413 833.448 226.235C833.679 226.058 833.883 225.889 834.061 225.729C834.239 225.569 834.39 225.44 834.514 225.343C834.647 225.236 834.767 225.183 834.874 225.183C834.981 225.183 835.074 225.227 835.154 225.316L835.447 225.662C835.012 226.124 834.585 226.524 834.168 226.862C833.759 227.19 833.341 227.461 832.915 227.675C832.497 227.888 832.062 228.043 831.609 228.141C831.156 228.248 830.672 228.301 830.157 228.301C829.419 228.301 828.762 228.181 828.184 227.941C827.616 227.692 827.136 227.346 826.745 226.902C826.354 226.449 826.056 225.902 825.852 225.263C825.648 224.614 825.546 223.89 825.546 223.09C825.546 222.424 825.612 221.753 825.746 221.078C825.879 220.403 826.074 219.754 826.332 219.133C826.598 218.511 826.923 217.929 827.305 217.387C827.696 216.845 828.14 216.374 828.637 215.974C829.135 215.574 829.686 215.259 830.29 215.028C830.894 214.797 831.547 214.682 832.249 214.682C832.897 214.682 833.444 214.775 833.888 214.961C834.341 215.139 834.705 215.366 834.981 215.641C835.265 215.908 835.469 216.201 835.594 216.521C835.718 216.832 835.78 217.125 835.78 217.4ZM832.182 215.614C831.471 215.614 830.827 215.765 830.25 216.067C829.681 216.37 829.175 216.774 828.731 217.28C828.295 217.778 827.927 218.36 827.625 219.026C827.331 219.683 827.114 220.372 826.972 221.091C828.1 220.967 829.073 220.825 829.89 220.665C830.707 220.496 831.4 220.323 831.969 220.145C832.537 219.959 832.995 219.759 833.341 219.546C833.697 219.332 833.972 219.115 834.168 218.893C834.363 218.662 834.492 218.426 834.554 218.186C834.625 217.946 834.661 217.698 834.661 217.44C834.661 217.254 834.616 217.054 834.528 216.84C834.448 216.618 834.31 216.418 834.114 216.241C833.919 216.063 833.661 215.916 833.341 215.801C833.031 215.677 832.644 215.614 832.182 215.614ZM837.786 228.128L839.385 214.828H839.958C840.269 214.828 840.425 214.988 840.425 215.308L840.038 219.252C840.642 217.804 841.331 216.689 842.104 215.908C842.886 215.117 843.716 214.722 844.596 214.722C844.96 214.722 845.333 214.797 845.715 214.948L845.489 216.134C845.08 215.983 844.698 215.908 844.343 215.908C843.392 215.908 842.535 216.378 841.771 217.32C841.016 218.253 840.367 219.603 839.825 221.371L839.026 228.128H837.786Z" fill="white"/>
</g>
<defs>
<linearGradient id="paint0_linear_7739_29" x1="207.031" y1="118.383" x2="211.7" y2="118.383" gradientUnits="userSpaceOnUse">
<stop stop-color="#293990"/>
<stop offset="1" stop-color="#2D2B6E"/>
</linearGradient>
<clipPath id="clip0_7739_29">
<rect width="875" height="256" fill="white"/>
</clipPath>
</defs>
</svg>
